<svg width="32" height="32" viewBox="0 0 32 32" fill="none" xmlns="http://www.w3.org/2000/svg">
<g clip-path="url(#clip0_3_773)">
<path d="M18.0331 13.8154C17.4744 13.8154 17.068 14.2726 17.068 14.8821C17.068 15.4408 17.5252 15.9488 18.0331 15.9488C18.5919 15.9488 18.9982 15.4916 18.9982 14.8821C18.9474 14.3234 18.5411 13.8154 18.0331 13.8154ZM14.5792 13.8154C14.0204 13.8154 13.6141 14.2726 13.6141 14.8821C13.6141 15.4408 14.0712 15.9488 14.5792 15.9488C15.1379 15.9488 15.5442 15.4916 15.5442 14.8821C15.5442 14.3234 15.0871 13.8154 14.5792 13.8154Z" fill="white"/>
<path d="M18.9466 18.2344C18.9466 18.2344 18.5911 17.8281 18.3371 17.4725C19.5561 17.117 20.0133 16.3551 20.0133 16.3551C19.6069 16.609 19.2514 16.8122 18.9466 16.9138C17.7276 17.4217 16.4069 17.5741 15.1371 17.3202C14.68 17.2186 14.2228 17.0662 13.7657 16.9138C13.5117 16.8122 13.3085 16.7106 13.0546 16.609C13.0038 16.609 13.0038 16.5583 12.953 16.5583C12.953 16.5583 12.9022 16.5583 12.9022 16.5075C12.7498 16.4059 12.6482 16.3551 12.6482 16.3551C12.6482 16.3551 13.1054 17.117 14.2736 17.4725C13.9688 17.8281 13.6641 18.2344 13.6641 18.2344C11.5815 18.1837 10.8196 16.8122 10.8196 16.8122C10.8196 13.7646 12.1911 11.3265 12.1911 11.3265C13.5625 10.3106 14.8323 10.3614 14.8323 10.3614L14.9339 10.463C13.2577 10.971 12.4451 11.6821 12.4451 11.6821C12.4451 11.6821 12.6482 11.5805 13.0038 11.4281C14.0196 10.971 14.8323 10.8694 15.1371 10.8186C15.1879 10.8186 15.2387 10.8186 15.2895 10.8186C16.9149 10.6154 18.5911 10.9202 20.0133 11.6821C20.0133 11.6821 19.2514 10.971 17.6768 10.463L17.8292 10.3106C17.8292 10.3106 19.099 10.2598 20.4704 11.2757C20.4704 11.2757 21.8419 13.7138 21.8419 16.7614C21.8419 16.8122 21.0292 18.1329 18.9466 18.2344ZM22.6038 5.94238H10.0069C9.75297 5.94238 9.499 5.99318 9.24504 6.09476C8.99107 6.19635 8.78794 6.34873 8.63556 6.50111C8.43239 6.70429 8.33075 6.90746 8.22916 7.11064C8.12758 7.36461 8.07678 7.61857 8.07678 7.87254V20.571C8.07678 21.6376 8.94027 22.5011 10.0069 22.5011H20.6736L20.1657 20.7741L21.3847 21.8916L22.5022 22.9583L24.5339 24.736V7.87254C24.5339 7.61857 24.4832 7.36461 24.3816 7.11064C24.28 6.85667 24.1276 6.65349 23.9752 6.50111C23.772 6.29794 23.5689 6.19635 23.3657 6.09476C23.061 5.99318 22.8578 5.94238 22.6038 5.94238Z" fill="white"/>
<path d="M15.9498 0.508057C24.4323 0.508057 31.2895 7.3652 31.2895 15.8477C31.2895 24.3303 24.4323 31.1874 15.9498 31.1874C7.46724 31.1874 0.610107 24.3303 0.610107 15.8477C0.610107 7.3652 7.51804 0.508057 15.9498 0.508057Z" stroke="white"/>
</g>
<defs>
<clipPath id="clip0_3_773">
<rect width="32" height="32" fill="white"/>
</clipPath>
</defs>
</svg>
