<svg width="33" height="32" viewBox="0 0 33 32" fill="none" xmlns="http://www.w3.org/2000/svg">
<g clip-path="url(#clip0_3_803)">
<path fill-rule="evenodd" clip-rule="evenodd" d="M17.5905 17.6757C17.7429 17.7773 17.946 17.8789 18.1492 17.8789C18.3016 17.8789 18.4032 17.8789 18.5556 17.8281C18.6572 17.7773 18.8095 17.6757 18.8603 17.6249C18.9619 17.5233 19.0127 17.4217 19.0635 17.2694C19.1143 17.1678 19.1143 17.0154 19.1143 16.863C19.1143 16.7106 19.0635 16.5075 18.9619 16.3551C18.8603 16.2027 18.7587 16.1011 18.6064 15.9995C18.454 15.8979 18.3016 15.8471 18.0984 15.8471C17.946 15.8471 17.7429 15.8979 17.5905 15.9487C17.4381 16.0503 17.3365 16.1519 17.2349 16.3043C17.1333 16.4567 17.0825 16.609 17.0825 16.7614C17.0825 16.9138 17.1333 17.117 17.1841 17.2694C17.3365 17.4725 17.4381 17.5741 17.5905 17.6757ZM15.8635 20.317C16.727 20.3678 17.5905 20.1138 18.3016 19.6059C18.3524 19.5551 18.4032 19.5043 18.4032 19.4027C18.4032 19.3519 18.3524 19.2503 18.3016 19.1995C18.3016 19.1487 18.2508 19.1487 18.2 19.1487C18.1492 19.1487 18.1492 19.1487 18.0984 19.1487C18.0476 19.1487 17.946 19.1995 17.8952 19.2503C17.2857 19.6567 16.5746 19.9106 15.8127 19.8598C15.0508 19.9106 14.3397 19.6567 13.7302 19.2503C13.6794 19.1995 13.6286 19.1995 13.527 19.1995C13.4762 19.1995 13.3746 19.2503 13.3746 19.3011C13.3238 19.3519 13.3238 19.4027 13.273 19.4535C13.273 19.5043 13.273 19.6059 13.3238 19.6567C14.1365 20.063 15 20.3678 15.8635 20.317ZM12.7143 16.3043C12.6635 16.4059 12.6127 16.5583 12.5619 16.6598C12.5619 16.8122 12.5619 16.9138 12.5619 17.0662C12.6127 17.3202 12.7651 17.5741 12.9683 17.6757C13.1714 17.8281 13.4762 17.8789 13.7302 17.8281C13.8825 17.8281 13.9841 17.7773 14.0857 17.6757C14.1873 17.6249 14.2889 17.5233 14.3397 17.4217C14.4921 17.2186 14.5429 16.9138 14.4921 16.6598C14.4413 16.4059 14.2889 16.1519 14.0857 16.0503C13.8825 15.8979 13.5778 15.8471 13.3238 15.8979C13.1206 15.8979 12.8667 16.0503 12.7143 16.3043ZM22.2127 15.0852C22.3651 15.3392 22.4667 15.5932 22.4667 15.8471C22.4667 16.1011 22.4159 16.4059 22.2635 16.609C22.1111 16.863 21.9079 17.0154 21.654 17.1678C21.654 17.3202 21.654 17.4725 21.654 17.6249C21.654 19.8598 19.0635 21.6376 15.8635 21.6376C12.6635 21.6376 10.1238 19.809 10.1238 17.5741C10.1238 17.4217 10.1238 17.2694 10.1238 17.117C9.92064 17.0154 9.76826 16.9138 9.61588 16.7614C9.4635 16.609 9.36191 16.4059 9.31112 16.2027C9.26033 15.9995 9.26033 15.7964 9.26033 15.5932C9.31112 15.39 9.36191 15.1868 9.4635 15.0344C9.56509 14.8821 9.71747 14.7297 9.92064 14.6281C10.073 14.5265 10.2762 14.4757 10.4794 14.4249C10.6825 14.4249 10.8857 14.4249 11.0889 14.4757C11.2921 14.5265 11.4445 14.6281 11.5968 14.7805C12.7143 14.0186 14.0857 13.5614 15.4572 13.5614L16.1683 10.1075C16.1683 10.0567 16.1683 10.0059 16.2191 10.0059C16.2191 9.95508 16.2698 9.95508 16.3206 9.90429C16.3714 9.90429 16.3714 9.85349 16.4222 9.85349C16.473 9.85349 16.5238 9.85349 16.5238 9.85349L18.9619 10.3614C19.0635 10.1583 19.2667 10.0059 19.4698 9.90429C19.673 9.8027 19.927 9.85349 20.1302 9.90429C20.3333 10.0059 20.5365 10.1583 20.6381 10.3614C20.7397 10.5646 20.7905 10.8186 20.7397 11.0217C20.6889 11.2757 20.5365 11.4789 20.3841 11.5805C20.181 11.7329 19.9778 11.7837 19.7238 11.7837C19.4698 11.7837 19.2667 11.6821 19.1143 11.5297C18.9619 11.3773 18.8603 11.1741 18.8095 10.9202L16.6762 10.463L16.0159 13.5614C17.3873 13.6122 18.7079 14.0186 19.8254 14.7805C19.9778 14.6281 20.181 14.5265 20.3333 14.4757C20.5365 14.4249 20.7397 14.3741 20.9429 14.4249C21.146 14.4249 21.3492 14.5265 21.5524 14.6281C21.9079 14.7297 22.0603 14.8821 22.2127 15.0852ZM25.7683 15.8471C25.7683 21.3329 21.3492 25.7519 15.8635 25.7519C10.3778 25.7519 5.95874 21.3329 5.95874 15.8471C5.95874 10.3614 10.3778 5.94238 15.8635 5.94238C21.2984 5.94238 25.7683 10.3614 25.7683 15.8471Z" fill="white"/>
<path d="M15.8635 0.508057C24.346 0.508057 31.2032 7.3652 31.2032 15.8477C31.2032 24.3303 24.346 31.1874 15.8635 31.1874C7.38095 31.1874 0.523804 24.3303 0.523804 15.8477C0.523804 7.3652 7.38095 0.508057 15.8635 0.508057Z" stroke="white"/>
</g>
<defs>
<clipPath id="clip0_3_803">
<rect width="32" height="32" fill="white" transform="translate(0.0158691)"/>
</clipPath>
</defs>
</svg>
