<svg width="33" height="32" viewBox="0 0 33 32" fill="none" xmlns="http://www.w3.org/2000/svg">
<g clip-path="url(#clip0_3_791)">
<path d="M15.7964 13.6635H17.5234C17.8281 13.6635 18.1329 13.9175 18.1329 14.2222C18.1329 14.527 17.8789 14.781 17.5742 14.781H15.8472V13.6635H15.7964ZM12.2916 13.1048C12.444 13.1556 12.6472 13.1556 12.7996 13.1556H12.8503V17.4222H15.1361C15.1869 17.6254 15.2376 17.7778 15.2884 17.9302H13.4091V21.6381C13.4091 21.7905 13.3583 21.8921 13.2567 21.9937C13.1551 22.0953 13.0027 22.1461 12.8503 22.1461C12.7488 22.1461 12.698 22.1461 12.6472 22.0953C12.5964 22.0445 12.4948 22.0445 12.444 21.9937C12.3932 21.9429 12.3424 21.8921 12.2916 21.8413C12.2408 21.7905 12.2408 21.6889 12.2408 21.6381L12.2916 13.1048ZM14.0694 12.8508V16.3556H15.3392C15.2884 16.508 15.2376 16.7111 15.1869 16.8635H13.5107V13.054C13.7138 13.0032 13.8662 12.9524 14.0694 12.8508ZM14.6281 12.5969H17.5234C17.7773 12.5969 17.9805 12.6476 18.1837 12.6984C18.3869 12.8 18.59 12.9016 18.7424 13.054C18.8948 13.2064 19.0472 13.3588 19.098 13.5619C19.1996 13.7651 19.2503 13.9683 19.2503 14.1715C19.2503 14.6286 19.0472 15.0349 18.7424 15.2889C18.59 15.1873 18.3869 15.0857 18.1837 15.0349C18.3361 14.9334 18.4884 14.8318 18.5392 14.6794C18.6408 14.527 18.6916 14.3746 18.6916 14.1715C18.6916 14.0191 18.6408 13.8667 18.59 13.7651C18.5392 13.6127 18.4376 13.5111 18.3361 13.4096C18.2345 13.308 18.0821 13.2064 17.9297 13.1556C17.7773 13.1048 17.625 13.054 17.4726 13.054H15.2376V15.1873H16.3043C16.0503 15.3397 15.8472 15.4921 15.644 15.6953H14.6789L14.6281 12.5969ZM11.1742 12.4953C11.3265 12.6476 11.5297 12.8 11.7329 12.9016V21.6381C11.7329 21.7905 11.7837 21.8921 11.8345 22.0445C11.8853 22.1969 11.9869 22.2984 12.0884 22.4C12.19 22.5016 12.3424 22.5524 12.444 22.654C12.5964 22.7048 12.7488 22.7556 12.9011 22.7556C13.5107 22.7556 14.0694 22.2984 14.0694 21.6889V18.4889H15.6948L16.1011 19.0476H14.6281V21.6889C14.5773 23.7207 11.2249 23.7207 11.1234 21.6889V12.4953H11.1742ZM15.0853 11.581H17.5742C17.9805 11.581 18.3361 11.6826 18.6916 11.7842C19.0472 11.9365 19.3519 12.1397 19.6059 12.3937C19.8599 12.6476 20.063 12.9524 20.2154 13.2572C20.3678 13.5619 20.4186 13.9175 20.4186 14.273C20.4186 14.9334 20.1138 15.5937 19.5551 16.1016L19.4027 15.8984C19.3519 15.8476 19.3011 15.7461 19.1996 15.6953C19.6059 15.3397 19.8091 14.8318 19.8091 14.273C19.8091 13.7143 19.6059 13.1556 19.1488 12.7492C18.7424 12.3429 18.1329 12.0889 17.5234 12.0889H14.8313C14.9329 11.9365 15.0345 11.7842 15.0853 11.581ZM15.0853 10.5143H17.5742C19.8091 10.5143 21.6376 12.1905 21.6376 14.2222C21.6376 14.7302 21.5361 15.2889 21.2821 15.7461C21.0281 16.2032 20.6726 16.6603 20.2662 17.0159L19.9107 16.5588C22.2472 14.5778 20.7234 11.0222 17.5742 11.0222H15.1869C15.1361 10.8191 15.1361 10.6667 15.0853 10.5143ZM14.3742 9.44765H17.5742C20.4694 9.49844 22.7551 11.6318 22.7043 14.273C22.7043 14.9334 22.5011 15.5937 22.1964 16.2032C21.8916 16.8127 21.4345 17.3715 20.8757 17.7778L20.571 17.3715C21.2821 16.8127 21.79 16.0508 22.044 15.2381C22.298 14.4254 22.2472 13.5111 21.8916 12.6984C21.5869 11.8857 20.9773 11.1746 20.2154 10.6667C19.4535 10.1588 18.4884 9.90479 17.5742 9.90479H14.8821C14.8313 9.854 14.8313 9.8032 14.7805 9.75241C14.6281 9.70161 14.4757 9.54923 14.3742 9.44765ZM12.7996 8.88892C12.3424 8.88892 11.8853 9.0413 11.4789 9.29526C11.0726 9.54923 10.7678 9.90479 10.6154 10.3111C10.463 10.7175 10.4123 11.1746 10.5646 11.581V21.6381C10.5646 22.8064 11.6313 23.7715 12.9011 23.7715C14.171 23.7715 15.2376 22.8064 15.2376 21.6381V19.5048H16.5075L19.0472 22.8572C19.1996 23.1111 19.4535 23.2635 19.7075 23.4159C19.9615 23.5683 20.2662 23.6699 20.571 23.7207C20.8757 23.7715 21.1805 23.7715 21.4853 23.7207C21.79 23.6699 22.044 23.5683 22.298 23.3651C22.5519 23.2127 22.7551 23.0096 22.9075 22.7556C23.0599 22.5016 23.1615 22.2476 23.263 21.9937C23.3138 21.7397 23.3138 21.4349 23.263 21.181C23.2123 20.927 23.0599 20.673 22.9075 20.4191L21.2821 18.3365C21.9424 17.8286 22.5011 17.2191 22.8567 16.508C23.2123 15.7969 23.4154 15.0349 23.4154 14.2222C23.4154 11.2762 20.7742 8.93971 17.5742 8.93971H12.9011L12.7996 8.88892Z" fill="white"/>
<path d="M16.4574 0.508057C24.9399 0.508057 31.7971 7.3652 31.7971 15.8477C31.7971 24.3303 24.9399 31.1874 16.4574 31.1874C7.97487 31.1874 1.11774 24.3303 1.11774 15.8477C1.06695 7.3652 7.97487 0.508057 16.4574 0.508057Z" stroke="white"/>
</g>
<defs>
<clipPath id="clip0_3_791">
<rect width="32" height="32" fill="white" transform="translate(0.507935)"/>
</clipPath>
</defs>
</svg>
