<svg width="33" height="32" viewBox="0 0 33 32" fill="none" xmlns="http://www.w3.org/2000/svg">
<g clip-path="url(#clip0_3_777)">
<path d="M22.0966 8.9904L8.07758 14.2221C7.1125 14.5777 7.1125 15.1364 7.9252 15.3396L11.5315 16.4063L19.8617 11.3269C20.2681 11.0729 20.6236 11.2253 20.3189 11.4793L13.5633 17.3713L13.3093 20.9777C13.6649 20.9777 13.8173 20.8253 14.0204 20.6221L15.7474 18.9967L19.4046 21.5872C20.0649 21.9428 20.5728 21.7396 20.7252 20.9777L23.1125 10.0571C23.3665 9.14278 22.7569 8.73643 22.0966 8.9904Z" fill="white"/>
<path d="M16.2545 0.508057C24.6863 0.508057 31.5942 7.3652 31.5942 15.8477C31.5942 24.3303 24.7371 31.1874 16.2545 31.1874C7.772 31.1874 0.914856 24.3303 0.914856 15.8477C0.914856 7.3652 7.772 0.508057 16.2545 0.508057Z" stroke="white"/>
</g>
<defs>
<clipPath id="clip0_3_777">
<rect width="32.5079" height="32" fill="white"/>
</clipPath>
</defs>
</svg>
