<svg width="33" height="32" viewBox="0 0 33 32" fill="none" xmlns="http://www.w3.org/2000/svg">
<g clip-path="url(#clip0_3_780)">
<path d="M16.5593 0.508057C25.0418 0.508057 31.899 7.3652 31.899 15.8477C31.899 24.3303 25.0418 31.1874 16.5593 31.1874C8.07674 31.1874 1.21958 24.3303 1.21958 15.8477C1.16878 7.3652 8.07674 0.508057 16.5593 0.508057Z" stroke="white"/>
<path d="M22.4518 19.6064C22.2995 16.7111 18.4392 15.3905 18.0836 15.2381C18.0836 15.2381 18.0836 15.2381 18.0836 15.1873L22.0455 11.3778V10.9715C22.0455 10.9207 21.9947 10.8699 21.9439 10.8699H14.6804V8.58416V7.87305L11.9884 8.43178V8.83813H12.1407C12.1407 8.83813 12.8011 8.83813 12.8011 9.44765V10.8699H10.7185C10.6677 10.8699 10.6677 10.9207 10.6677 10.9207V11.835H12.8519V13.9175V16.7111C12.8519 18.235 13.8677 19.3016 15.6963 19.1492C16.1026 19.0984 16.4074 18.9969 16.7122 18.7937C16.8645 18.6921 16.9153 18.5905 16.9153 18.4381V17.981C16.3058 18.3365 15.8487 18.3365 15.8487 18.3365C14.7312 18.3365 14.7312 16.9651 14.7312 16.9651V11.9365H19.963L16.2042 15.5429C16.2042 16 16.2042 16.4064 16.2042 16.4064C19.6582 16.9651 20.6233 19.0984 20.6233 19.708C20.6233 19.708 20.9788 22.7556 17.8296 22.9588C17.8296 22.9588 15.7471 23.0603 15.3915 22.2476C15.3915 22.1969 15.3915 22.1969 15.4423 22.1969C15.7979 22.0445 16.0011 21.7397 16.0011 21.3842C16.0011 20.7746 15.6455 20.3175 14.8328 20.3175C14.1725 20.3175 13.6645 20.7746 13.6645 21.3842C13.6645 21.3842 13.3598 23.9238 17.8296 23.873C22.8074 23.6699 22.4518 19.6064 22.4518 19.6064Z" fill="white"/>
</g>
<defs>
<clipPath id="clip0_3_780">
<rect width="32" height="32" fill="white" transform="translate(0.507935)"/>
</clipPath>
</defs>
</svg>
