<svg width="33" height="32" viewBox="0 0 33 32" fill="none" xmlns="http://www.w3.org/2000/svg">
<g clip-path="url(#clip0_3_799)">
<path d="M19.927 8.88892C21.0444 8.88892 21.9079 9.8032 21.9079 10.9715V11.6826H9.10794V11.0222C9.10794 9.854 10.0222 8.93971 11.1397 8.93971H19.927V8.88892ZM9.15873 12.4445H21.9587V15.0857H9.15873V12.4445ZM9.15873 15.7969H21.9587V18.4381H9.15873V15.7969ZM22.0095 19.2V19.8603C22.0095 21.0286 21.0952 21.9429 19.9778 21.9429H19.3683L16.6762 24.7365V21.9429H11.1905C10.073 21.9429 9.15873 21.0286 9.15873 19.8603V19.2H22.0095Z" fill="white"/>
<path d="M16.0667 0.508057C24.5492 0.508057 31.4064 7.3652 31.4064 15.8477C31.4064 24.3303 24.5492 31.1874 16.0667 31.1874C7.58414 31.1874 0.72699 24.3303 0.72699 15.8477C0.72699 7.3652 7.63493 0.508057 16.0667 0.508057Z" stroke="white"/>
</g>
<defs>
<clipPath id="clip0_3_799">
<rect width="32" height="32" fill="white" transform="translate(0.0158691)"/>
</clipPath>
</defs>
</svg>
