<svg width="34" height="32" viewBox="0 0 34 32" fill="none" xmlns="http://www.w3.org/2000/svg">
<g clip-path="url(#clip0_3_795)">
<path d="M23.7714 14.6286H19.7079L21.4857 9.14287C21.4857 9.09208 21.5365 9.04128 21.5873 8.99049C21.6381 8.9397 21.6889 8.9397 21.7905 8.9397C21.8413 8.9397 21.8921 8.9397 21.9937 8.99049C22.0952 9.04128 22.0952 9.09208 22.0952 9.14287L23.7714 14.6286ZM23.7714 14.6286L24.6349 17.4222C24.6857 17.5238 24.6857 17.6762 24.6349 17.7778C24.5841 17.8794 24.5333 18.0318 24.4318 18.0826L16.7619 23.7714L23.7714 14.6286ZM16.7619 23.7714L19.6572 14.6286H23.7206L16.7619 23.7714ZM9.75239 14.6286L11.5302 9.14287C11.5302 9.09208 11.581 9.04128 11.6318 8.99049C11.6825 8.9397 11.7333 8.9397 11.7841 8.9397C11.8349 8.9397 11.8857 8.9397 11.9873 8.99049C12.0381 9.04128 12.0889 9.09208 12.0889 9.14287L13.8667 14.6286H9.75239ZM9.75239 14.6286L16.7619 23.7714L9.09207 18.0826C8.99048 17.981 8.88889 17.8794 8.88889 17.7778C8.8381 17.6762 8.8381 17.5238 8.88889 17.4222L9.75239 14.6286ZM16.7619 23.7714L9.75239 14.6286H13.8159L16.7619 23.7714ZM16.7619 23.7714L13.8667 14.6286H19.6572L16.7619 23.7714Z" fill="white"/>
<path d="M16.7619 0.508057C25.2444 0.508057 32.1016 7.3652 32.1016 15.8477C32.1016 24.3303 25.2444 31.1874 16.7619 31.1874C8.27936 31.1874 1.42221 24.3303 1.42221 15.8477C1.42221 7.3652 8.27936 0.508057 16.7619 0.508057Z" stroke="white"/>
</g>
<defs>
<clipPath id="clip0_3_795">
<rect width="32.5079" height="32" fill="white" transform="translate(0.507935)"/>
</clipPath>
</defs>
</svg>
