<svg width="33" height="32" viewBox="0 0 33 32" fill="none" xmlns="http://www.w3.org/2000/svg">
<g clip-path="url(#clip0_3_787)">
<path d="M25.8042 10.6159C25.1439 10.9206 24.4836 11.073 23.7217 11.1746C24.4836 10.7175 25.0423 10.0064 25.2963 9.19367C24.5852 9.60002 23.8233 9.90478 23.0106 10.0572C22.4519 9.49843 21.7408 9.09208 20.9789 8.9397C20.2169 8.78732 19.4042 8.9397 18.6931 9.29525C17.982 9.65081 17.4233 10.2603 17.1185 10.9714C16.8138 11.6826 16.7122 12.4953 16.9154 13.308C15.4931 13.2572 14.0709 12.8508 12.8011 12.1905C11.5312 11.5302 10.363 10.6159 9.49949 9.49843C9.19472 10.0572 8.99155 10.6667 8.99155 11.327C8.99155 11.9365 9.14393 12.4953 9.3979 13.054C9.70266 13.5619 10.0582 14.0191 10.5662 14.3746C10.0074 14.3746 9.44869 14.2222 8.94076 13.9175V13.9683C8.94076 14.781 9.24552 15.5937 9.75345 16.254C10.2614 16.9143 11.0233 17.3206 11.836 17.5238C11.3281 17.6762 10.7693 17.6762 10.2106 17.5746C10.4646 18.2857 10.8709 18.8953 11.4804 19.3524C12.09 19.8095 12.8011 20.0635 13.563 20.0635C12.2931 21.0794 10.7185 21.5873 9.09314 21.5873C8.78837 21.5873 8.53441 21.5873 8.22964 21.5365C9.90584 22.6032 11.7852 23.1619 13.7662 23.1619C20.4201 23.1619 24.0265 17.6762 24.0265 12.9016C24.0265 12.7492 24.0265 12.5968 24.0265 12.4445C24.7376 11.9873 25.3471 11.327 25.8042 10.6159Z" fill="white"/>
<path d="M16.6606 0.508057C25.1431 0.508057 32.0002 7.3652 32.0002 15.8477C32.0002 24.3303 25.1431 31.1874 16.6606 31.1874C8.17803 31.1874 1.32089 24.3303 1.32089 15.8477C1.32089 7.3652 8.17803 0.508057 16.6606 0.508057Z" stroke="white"/>
</g>
<defs>
<clipPath id="clip0_3_787">
<rect width="32" height="32" fill="white" transform="translate(0.507935)"/>
</clipPath>
</defs>
</svg>
