<svg width="33" height="32" viewBox="0 0 33 32" fill="none" xmlns="http://www.w3.org/2000/svg">
<g clip-path="url(#clip0_3_783)">
<path d="M16.3558 0.508057C24.8383 0.508057 31.6955 7.3652 31.6955 15.8477C31.6955 24.3303 24.8383 31.1874 16.3558 31.1874C7.87326 31.1874 1.01611 24.3303 1.01611 15.8477C1.01611 7.3652 7.87326 0.508057 16.3558 0.508057Z" stroke="white"/>
<path fill-rule="evenodd" clip-rule="evenodd" d="M16.3558 3.96191C9.80344 3.96191 4.47009 9.29525 4.47009 15.8476C4.47009 21.0794 7.87328 25.5492 12.5971 27.1238C13.2066 27.2254 13.4098 26.8699 13.4098 26.5651C13.4098 26.2603 13.4098 25.346 13.4098 24.3302C10.413 24.8889 9.65105 23.6191 9.39709 22.9587C9.24471 22.6032 8.68598 21.5873 8.17804 21.2826C7.77169 21.0794 7.16217 20.5206 8.17804 20.4699C9.09232 20.4699 9.80344 21.3333 10.0066 21.6889C11.0733 23.4667 12.8003 22.9587 13.4606 22.654C13.5622 21.8921 13.8669 21.3841 14.2225 21.0794C11.5812 20.7746 8.83836 19.7587 8.83836 15.2381C8.83836 13.9683 9.2955 12.9016 10.0574 12.0381C9.95582 11.7333 9.49867 10.5143 10.159 8.8889C10.159 8.8889 11.1749 8.58414 13.4098 10.108C14.3749 9.85398 15.3907 9.7016 16.3558 9.7016C17.3717 9.7016 18.3876 9.85398 19.3018 10.108C21.5876 8.58414 22.5526 8.8889 22.5526 8.8889C23.213 10.5143 22.8066 11.7333 22.6542 12.0381C23.4161 12.8508 23.8733 13.9175 23.8733 15.2381C23.8733 19.8095 21.0796 20.8254 18.4384 21.0794C18.8447 21.4349 19.2511 22.146 19.2511 23.2635C19.2511 24.8381 19.2511 26.1079 19.2511 26.5143C19.2511 26.8191 19.4542 27.1746 20.0638 27.073C22.4003 26.2603 24.4828 24.7365 25.905 22.7556C27.378 20.7238 28.1399 18.2857 28.1399 15.7968C28.2415 9.29525 22.9082 3.96191 16.3558 3.96191Z" fill="white"/>
</g>
<defs>
<clipPath id="clip0_3_783">
<rect width="32" height="32" fill="white" transform="translate(0.507935)"/>
</clipPath>
</defs>
</svg>
