<svg xmlns="http://www.w3.org/2000/svg" width="38" height="37" fill="none"><rect width="36" height="36" x="1.015" y=".5" fill="#030405" rx="18"/><path fill="#fff" fill-rule="evenodd" d="M24.884 12.631a.875.875 0 0 1 0 1.238l-10.5 10.5a.875.875 0 0 1-1.238-1.238l10.5-10.5a.875.875 0 0 1 1.238 0Z" clip-rule="evenodd"/><path fill="#fff" fill-rule="evenodd" d="M13.146 12.631a.875.875 0 0 1 1.238 0l10.5 10.5a.875.875 0 1 1-1.238 1.238l-10.5-10.5a.875.875 0 0 1 0-1.238Z" clip-rule="evenodd"/><rect width="36" height="36" x="1.015" y=".5" stroke="#4A4E52" rx="18"/></svg>