<svg xmlns="http://www.w3.org/2000/svg" width="23" height="30" fill="none"><path fill="#fff" d="M22.008 22.132c-.312-5.509-7.255-8.013-7.92-8.27-.027-.014-.027-.041-.013-.068l7.16-7.175v-.771a.237.237 0 0 0-.23-.23H7.81V0L2.94 1.015v.731h.271s1.194 0 1.194 1.191v2.667H.636c-.068 0-.136.068-.136.136v1.692h3.92v9.191c0 2.883 1.857 4.887 5.112 4.616.691-.054 1.329-.325 1.871-.677a.852.852 0 0 0 .393-.717v-.907c-1.057.704-1.952.663-1.952.663-2.062 0-2.02-2.613-2.02-2.613V7.432h9.492l-6.835 6.876c-.014.907-.027 1.611-.027 1.625 0 .027.013.04.04.04 6.266 1.056 7.961 5.104 7.961 6.281 0 0 .678 5.726-5.058 6.119 0 0-3.757.162-4.421-1.34-.027-.055 0-.109.054-.136.624-.284 1.044-.839 1.044-1.583 0-1.11-.678-2.017-2.102-2.017-1.152 0-2.102.906-2.102 2.017 0 0-.542 4.819 7.513 4.683 9.195-.162 8.625-7.865 8.625-7.865Z"/></svg>