<svg xmlns="http://www.w3.org/2000/svg" width="224" height="256" fill="none"><g filter="url(#a)"><path fill="#fff" d="M0 8a8 8 0 0 1 8-8h204a8 8 0 0 1 8 8v236a8 8 0 0 1-8 8H8a8 8 0 0 1-8-8V8Z"/><path fill="#2097F6" d="M61.555 31.93c-1.287-.37-2.224-.823-2.813-1.36a2.622 2.622 0 0 1-.875-2c0-.896.357-1.635 1.07-2.218.72-.589 1.652-.883 2.797-.883.782 0 1.477.15 2.086.453.615.302 1.089.719 1.422 1.25.339.531.508 1.112.508 1.742h-1.508c0-.687-.219-1.227-.656-1.617-.438-.396-1.055-.594-1.852-.594-.74 0-1.317.164-1.734.492-.411.323-.617.774-.617 1.352 0 .463.195.857.586 1.18.396.317 1.065.609 2.008.875.948.265 1.687.56 2.218.882.537.318.933.69 1.188 1.118.26.427.39.93.39 1.507 0 .922-.359 1.662-1.078 2.22-.718.551-1.68.827-2.882.827-.782 0-1.51-.148-2.188-.445-.677-.302-1.2-.714-1.57-1.234a3.018 3.018 0 0 1-.547-1.774h1.508c0 .688.252 1.232.757 1.633.51.396 1.19.594 2.04.594.791 0 1.398-.162 1.82-.485.422-.323.633-.763.633-1.32s-.196-.987-.586-1.29c-.39-.306-1.1-.608-2.125-.905Zm7.28-3.383.04.937c.62-.729 1.456-1.093 2.508-1.093 1.182 0 1.987.453 2.414 1.359a3.213 3.213 0 0 1 1.094-.984c.453-.25.987-.375 1.601-.375 1.854 0 2.797.981 2.828 2.945V37h-1.445v-5.578c0-.604-.138-1.055-.414-1.352-.276-.302-.74-.453-1.39-.453-.537 0-.983.162-1.337.485-.354.317-.56.747-.617 1.289V37h-1.453v-5.54c0-1.228-.602-1.843-1.805-1.843-.947 0-1.596.404-1.945 1.211V37H67.47v-8.453h1.367ZM86.728 37c-.084-.167-.151-.464-.204-.89-.671.697-1.474 1.046-2.406 1.046-.833 0-1.518-.234-2.055-.703-.53-.474-.796-1.073-.796-1.797 0-.88.333-1.562 1-2.047.671-.49 1.614-.734 2.828-.734H86.5v-.664c0-.505-.151-.906-.453-1.203-.302-.302-.748-.453-1.336-.453-.516 0-.948.13-1.297.39s-.523.576-.523.946h-1.454c0-.422.149-.828.446-1.22.302-.395.708-.707 1.219-.937a4.126 4.126 0 0 1 1.695-.343c.974 0 1.737.244 2.289.734.552.484.838 1.154.86 2.008v3.89c0 .776.098 1.394.296 1.852V37h-1.515Zm-2.399-1.102c.453 0 .883-.117 1.29-.351.405-.234.7-.54.882-.914v-1.735h-1.133c-1.77 0-2.656.519-2.656 1.555 0 .453.151.807.453 1.063.302.255.69.382 1.164.382Zm9.969-6.054a4.328 4.328 0 0 0-.711-.055c-.948 0-1.591.404-1.93 1.211v6h-1.445v-8.453h1.406l.024.976c.474-.755 1.145-1.132 2.015-1.132.281 0 .495.036.64.109v1.344Zm3.687-3.344v2.047h1.579v1.117h-1.579v5.242c0 .339.07.594.211.766.14.167.38.25.72.25a3.5 3.5 0 0 0 .687-.094V37c-.38.104-.75.156-1.11.156-.646 0-1.133-.195-1.46-.586-.329-.39-.493-.945-.493-1.664v-5.242H95v-1.117h1.54V26.5h1.444Zm10.633 9.477c.516 0 .966-.157 1.352-.47.385-.312.599-.702.64-1.171h1.368a2.624 2.624 0 0 1-.5 1.383 3.29 3.29 0 0 1-1.235 1.047c-.51.26-1.052.39-1.625.39-1.151 0-2.068-.383-2.75-1.148-.677-.771-1.015-1.823-1.015-3.156v-.243c0-.823.151-1.554.453-2.195a3.456 3.456 0 0 1 1.297-1.492c.567-.354 1.237-.531 2.007-.531.948 0 1.735.284 2.36.851.63.568.966 1.305 1.008 2.211h-1.368c-.041-.547-.25-.995-.625-1.344-.369-.354-.828-.53-1.375-.53-.734 0-1.304.265-1.711.796-.401.526-.601 1.29-.601 2.29v.273c0 .973.2 1.723.601 2.25.401.526.974.789 1.719.789Zm4.602-3.282c0-.828.161-1.573.484-2.234.328-.662.781-1.172 1.359-1.531.584-.36 1.248-.54 1.993-.54 1.151 0 2.08.4 2.789 1.196.713.797 1.07 1.857 1.07 3.18v.101c0 .823-.159 1.563-.476 2.219a3.567 3.567 0 0 1-1.352 1.523c-.583.365-1.255.547-2.016.547-1.146 0-2.075-.398-2.789-1.195-.708-.797-1.062-1.852-1.062-3.164v-.102Zm1.453.172c0 .938.216 1.69.648 2.258.438.568 1.021.852 1.75.852.735 0 1.318-.287 1.75-.86.433-.578.649-1.385.649-2.422 0-.927-.222-1.677-.664-2.25-.438-.578-1.021-.867-1.75-.867-.714 0-1.289.284-1.727.852-.437.567-.656 1.38-.656 2.437Zm9.422-4.32.047 1.062c.645-.812 1.489-1.218 2.531-1.218 1.786 0 2.687 1.007 2.703 3.023V37h-1.445v-5.594c-.006-.61-.146-1.06-.422-1.351-.271-.292-.696-.438-1.274-.438-.468 0-.88.125-1.234.375s-.63.578-.828.985V37h-1.445v-8.453h1.367Zm9.422-2.047v2.047h1.578v1.117h-1.578v5.242c0 .339.07.594.211.766.14.167.38.25.718.25.167 0 .396-.031.688-.094V37c-.38.104-.75.156-1.11.156-.645 0-1.132-.195-1.461-.586-.328-.39-.492-.945-.492-1.664v-5.242h-1.539v-1.117h1.539V26.5h1.446Zm7.359 3.344a4.331 4.331 0 0 0-.711-.055c-.948 0-1.591.404-1.93 1.211v6h-1.445v-8.453h1.406l.024.976c.474-.755 1.146-1.132 2.015-1.132.282 0 .495.036.641.109v1.344ZM147.117 37c-.083-.167-.151-.464-.203-.89-.672.697-1.474 1.046-2.406 1.046-.834 0-1.518-.234-2.055-.703-.531-.474-.797-1.073-.797-1.797 0-.88.334-1.562 1-2.047.672-.49 1.615-.734 2.828-.734h1.407v-.664c0-.505-.151-.906-.453-1.203-.303-.302-.748-.453-1.336-.453-.516 0-.948.13-1.297.39s-.524.576-.524.946h-1.453c0-.422.149-.828.445-1.22a3.096 3.096 0 0 1 1.219-.937 4.13 4.13 0 0 1 1.696-.343c.973 0 1.736.244 2.289.734.552.484.838 1.154.859 2.008v3.89c0 .776.099 1.394.297 1.852V37h-1.516Zm-2.398-1.102a2.54 2.54 0 0 0 1.289-.351c.406-.234.7-.54.883-.914v-1.735h-1.133c-1.771 0-2.656.519-2.656 1.555 0 .453.151.807.453 1.063.302.255.69.382 1.164.382Zm9.273.079c.516 0 .966-.157 1.352-.47.385-.312.599-.702.64-1.171h1.368a2.624 2.624 0 0 1-.5 1.383 3.29 3.29 0 0 1-1.235 1.047c-.51.26-1.052.39-1.625.39-1.151 0-2.068-.383-2.75-1.148-.677-.771-1.015-1.823-1.015-3.156v-.243c0-.823.151-1.554.453-2.195a3.456 3.456 0 0 1 1.297-1.492c.567-.354 1.237-.531 2.007-.531.948 0 1.735.284 2.36.851.63.568.966 1.305 1.008 2.211h-1.368c-.041-.547-.25-.995-.625-1.344-.369-.354-.828-.53-1.375-.53-.734 0-1.304.265-1.711.796-.401.526-.601 1.29-.601 2.29v.273c0 .973.2 1.723.601 2.25.401.526.974.789 1.719.789Zm6.946-9.477v2.047h1.578v1.117h-1.578v5.242c0 .339.07.594.21.766.141.167.381.25.719.25.167 0 .396-.031.688-.094V37c-.381.104-.75.156-1.11.156-.646 0-1.133-.195-1.461-.586-.328-.39-.492-.945-.492-1.664v-5.242h-1.539v-1.117h1.539V26.5h1.446Z"/><g filter="url(#b)"><rect width="180" height="40" x="20" y="71" fill="#E7F4FF" rx="20"/><rect width="179" height="39" x="20.5" y="71.5" stroke="#2097F6" rx="19.5"/></g><g filter="url(#c)"><rect width="180" height="40" x="20" y="175" fill="#E7F4FF" rx="20"/><path fill="#2097F6" d="M60.676 197.437c0-.438-.155-.775-.465-1.012-.305-.237-.86-.476-1.661-.718-.802-.242-1.44-.51-1.914-.807-.907-.569-1.36-1.312-1.36-2.228 0-.802.325-1.463.977-1.983.656-.519 1.506-.779 2.55-.779.692 0 1.31.128 1.852.383.543.255.969.62 1.279 1.094.31.469.464.991.464 1.565h-1.722c0-.519-.164-.925-.492-1.217-.324-.296-.789-.444-1.395-.444-.565 0-1.005.121-1.32.362-.31.242-.464.579-.464 1.012 0 .365.168.67.506.916.337.242.893.479 1.668.711.774.228 1.396.49 1.866.786.47.292.813.629 1.032 1.012.219.378.328.822.328 1.333 0 .829-.319 1.49-.957 1.982-.633.488-1.495.732-2.584.732-.72 0-1.383-.132-1.989-.397-.602-.269-1.071-.638-1.408-1.107-.333-.47-.5-1.016-.5-1.641h1.73c0 .565.187 1.003.56 1.313.375.31.91.465 1.607.465.602 0 1.053-.121 1.354-.363.305-.246.458-.569.458-.97Zm6.343 2.7c-1.052 0-1.907-.331-2.563-.991-.652-.666-.978-1.55-.978-2.653v-.205c0-.738.142-1.397.424-1.976a3.275 3.275 0 0 1 1.204-1.36 3.176 3.176 0 0 1 1.722-.485c1.007 0 1.784.321 2.331.964.552.642.827 1.551.827 2.727v.67h-4.833c.05.611.253 1.094.609 1.449.36.356.81.534 1.353.534.761 0 1.381-.308 1.86-.923l.895.854a3.01 3.01 0 0 1-1.19 1.032 3.715 3.715 0 0 1-1.66.363Zm-.198-6.337c-.455 0-.825.159-1.107.478-.278.319-.456.764-.533 1.333h3.165v-.123c-.037-.556-.185-.975-.445-1.258-.26-.287-.62-.43-1.08-.43Zm6.542-2.994v1.798h1.306v1.23h-1.306v4.129c0 .282.055.488.164.615.114.123.315.185.602.185.191 0 .385-.023.581-.069v1.285a4.086 4.086 0 0 1-1.094.158c-1.276 0-1.914-.704-1.914-2.113v-4.19h-1.217v-1.23h1.217v-1.798h1.661Zm5.756 5.427c0-.724.144-1.376.43-1.955.288-.583.691-1.03 1.21-1.34.52-.314 1.117-.471 1.792-.471.998 0 1.807.321 2.427.964.624.642.961 1.494 1.011 2.556l.007.39c0 .729-.141 1.381-.424 1.955a3.078 3.078 0 0 1-1.203 1.333c-.52.314-1.121.472-1.805.472-1.043 0-1.88-.347-2.508-1.039-.625-.698-.937-1.625-.937-2.783v-.082Zm1.661.144c0 .761.157 1.358.472 1.791.314.428.752.643 1.313.643.56 0 .995-.219 1.305-.657.315-.437.472-1.078.472-1.921 0-.747-.162-1.339-.486-1.777-.319-.437-.754-.656-1.305-.656-.543 0-.973.216-1.292.649-.32.429-.479 1.071-.479 1.928ZM87.985 200v-6.166h-1.128v-1.23h1.128v-.677c0-.821.228-1.454.684-1.901.456-.446 1.094-.67 1.914-.67.292 0 .602.041.93.123l-.041 1.299a3.313 3.313 0 0 0-.636-.054c-.793 0-1.19.408-1.19 1.223v.657h1.504v1.23h-1.504V200h-1.66Zm9.632 0h-1.66v-7.396h1.66V200Zm-1.764-9.317c0-.256.08-.468.24-.636.164-.169.396-.253.697-.253.3 0 .533.084.697.253.164.168.246.38.246.636 0 .25-.082.46-.246.629-.164.164-.396.246-.697.246-.3 0-.533-.082-.697-.246a.882.882 0 0 1-.24-.629Zm5.121 1.921.047.854c.547-.661 1.265-.991 2.154-.991 1.54 0 2.324.882 2.351 2.645V200h-1.661v-4.792c0-.469-.102-.816-.307-1.039-.201-.228-.531-.342-.992-.342-.67 0-1.169.303-1.497.909V200h-1.66v-7.396h1.565Zm10.397 5.386a.752.752 0 0 0-.369-.677c-.242-.154-.645-.291-1.21-.41-.565-.118-1.037-.269-1.415-.451-.829-.401-1.244-.982-1.244-1.743 0-.638.269-1.171.806-1.6.538-.428 1.222-.642 2.051-.642.884 0 1.598.219 2.14.656.547.438.82 1.005.82 1.702h-1.661c0-.319-.118-.583-.355-.793-.237-.214-.552-.321-.944-.321-.364 0-.663.084-.895.253a.799.799 0 0 0-.342.677c0 .255.107.453.321.594.214.142.647.285 1.299.431.652.141 1.162.312 1.531.513.374.196.65.433.827.711.183.278.274.615.274 1.011 0 .666-.276 1.206-.827 1.62-.552.411-1.274.616-2.167.616-.606 0-1.146-.11-1.62-.328-.474-.219-.843-.52-1.108-.903a2.137 2.137 0 0 1-.396-1.237h1.613c.023.392.171.695.444.909.274.21.636.315 1.087.315.438 0 .77-.082.998-.247a.78.78 0 0 0 .342-.656Zm5.168-7.184v1.798h1.306v1.23h-1.306v4.129c0 .282.055.488.164.615.114.123.315.185.602.185.191 0 .385-.023.581-.069v1.285a4.091 4.091 0 0 1-1.094.158c-1.276 0-1.914-.704-1.914-2.113v-4.19h-1.217v-1.23h1.217v-1.798h1.661Zm6.453 3.315a4.16 4.16 0 0 0-.677-.055c-.761 0-1.273.292-1.538.875V200h-1.661v-7.396h1.586l.041.827c.401-.643.957-.964 1.668-.964.237 0 .433.032.588.095l-.007 1.559Zm5.53 5.154c-.487.575-1.18.862-2.078.862-.802 0-1.41-.235-1.825-.704-.41-.47-.615-1.149-.615-2.037v-4.792h1.661v4.771c0 .939.39 1.408 1.169 1.408.807 0 1.351-.289 1.634-.868v-5.311h1.661V200h-1.566l-.041-.725Zm6.337-.464c.415 0 .759-.121 1.033-.363.273-.241.419-.54.437-.895h1.566c-.019.46-.162.891-.431 1.292a2.84 2.84 0 0 1-1.094.943c-.46.233-.957.349-1.49.349-1.035 0-1.855-.335-2.461-1.005-.606-.67-.909-1.595-.909-2.776v-.17c0-1.126.301-2.026.902-2.701.602-.679 1.422-1.018 2.461-1.018.88 0 1.595.257 2.147.772.556.511.847 1.183.875 2.017h-1.566c-.018-.424-.164-.773-.437-1.046-.269-.273-.613-.41-1.033-.41-.537 0-.952.196-1.244.588-.291.387-.44.977-.444 1.77v.267c0 .802.143 1.401.431 1.798.291.392.71.588 1.257.588Zm6.371-8.005v1.798h1.306v1.23h-1.306v4.129c0 .282.055.488.165.615.113.123.314.185.601.185.192 0 .385-.023.581-.069v1.285a4.086 4.086 0 0 1-1.094.158c-1.276 0-1.914-.704-1.914-2.113v-4.19h-1.216v-1.23h1.216v-1.798h1.661Zm4.348 9.194h-1.661v-7.396h1.661V200Zm-1.764-9.317c0-.256.08-.468.24-.636.164-.169.396-.253.697-.253.301 0 .533.084.697.253.164.168.246.38.246.636 0 .25-.082.46-.246.629-.164.164-.396.246-.697.246-.301 0-.533-.082-.697-.246a.88.88 0 0 1-.24-.629Zm3.268 5.55c0-.724.144-1.376.431-1.955.287-.583.69-1.03 1.21-1.34.519-.314 1.116-.471 1.791-.471.998 0 1.807.321 2.426.964.625.642.962 1.494 1.012 2.556l.007.39c0 .729-.141 1.381-.424 1.955a3.078 3.078 0 0 1-1.203 1.333c-.52.314-1.121.472-1.805.472-1.043 0-1.88-.347-2.508-1.039-.625-.698-.937-1.625-.937-2.783v-.082Zm1.661.144c0 .761.157 1.358.472 1.791.314.428.752.643 1.312.643.561 0 .996-.219 1.306-.657.314-.437.472-1.078.472-1.921 0-.747-.162-1.339-.486-1.777-.319-.437-.754-.656-1.305-.656a1.52 1.52 0 0 0-1.292.649c-.319.429-.479 1.071-.479 1.928Zm8.162-3.773.048.854c.547-.661 1.265-.991 2.153-.991 1.541 0 2.325.882 2.352 2.645V200h-1.661v-4.792c0-.469-.103-.816-.308-1.039-.2-.228-.531-.342-.991-.342-.67 0-1.169.303-1.497.909V200h-1.661v-7.396h1.565Zm10.398 5.386a.752.752 0 0 0-.369-.677c-.242-.154-.645-.291-1.21-.41-.565-.118-1.037-.269-1.415-.451-.83-.401-1.245-.982-1.245-1.743 0-.638.269-1.171.807-1.6.538-.428 1.221-.642 2.051-.642.884 0 1.597.219 2.14.656.546.438.82 1.005.82 1.702h-1.661c0-.319-.119-.583-.356-.793-.237-.214-.551-.321-.943-.321-.365 0-.663.084-.896.253a.8.8 0 0 0-.341.677c0 .255.107.453.321.594.214.142.647.285 1.299.431.651.141 1.162.312 1.531.513.374.196.649.433.827.711.182.278.274.615.274 1.011 0 .666-.276 1.206-.828 1.62-.551.411-1.273.616-2.167.616-.606 0-1.146-.11-1.62-.328-.474-.219-.843-.52-1.107-.903a2.138 2.138 0 0 1-.397-1.237h1.614c.022.392.171.695.444.909.273.21.636.315 1.087.315.437 0 .77-.082.998-.247a.78.78 0 0 0 .342-.656Z"/><rect width="179" height="39" x="20.5" y="175.5" stroke="#2097F6" rx="19.5"/></g><g filter="url(#d)"><rect width="150" height="40" x="35" y="123" fill="#E7F4FF" rx="20"/><path fill="#2097F6" d="M75.273 145.437c0-.438-.154-.775-.464-1.012-.306-.237-.86-.476-1.662-.718-.802-.242-1.44-.51-1.914-.807-.907-.569-1.36-1.312-1.36-2.228 0-.802.326-1.463.978-1.983.656-.519 1.506-.779 2.55-.779.692 0 1.31.128 1.852.383s.968.62 1.278 1.094c.31.469.465.991.465 1.565h-1.723c0-.519-.164-.925-.492-1.217-.323-.296-.788-.444-1.394-.444-.565 0-1.005.121-1.32.362-.31.242-.464.579-.464 1.012 0 .365.168.67.505.916.338.242.894.479 1.668.711.775.228 1.397.49 1.867.786.469.292.813.629 1.032 1.012.219.378.328.822.328 1.333 0 .829-.32 1.49-.957 1.982-.634.488-1.495.732-2.584.732-.72 0-1.383-.132-1.99-.397-.6-.269-1.07-.638-1.407-1.107-.333-.47-.5-1.016-.5-1.641h1.73c0 .565.187 1.003.56 1.313.374.31.91.465 1.607.465.602 0 1.053-.121 1.353-.363.306-.246.458-.569.458-.97Zm5.168-6.631v1.798h1.306v1.23h-1.306v4.129c0 .282.055.488.165.615.113.123.314.185.601.185.191 0 .385-.023.581-.069v1.285a4.086 4.086 0 0 1-1.094.158c-1.276 0-1.914-.704-1.914-2.113v-4.19h-1.216v-1.23h1.216v-1.798h1.661Zm2.065 5.427c0-.724.143-1.376.43-1.955.288-.583.691-1.03 1.21-1.34.52-.314 1.117-.471 1.791-.471.999 0 1.808.321 2.427.964.625.642.962 1.494 1.012 2.556l.007.39c0 .729-.141 1.381-.424 1.955a3.079 3.079 0 0 1-1.203 1.333c-.52.314-1.121.472-1.805.472-1.043 0-1.88-.347-2.509-1.039-.624-.698-.936-1.625-.936-2.783v-.082Zm1.661.144c0 .761.157 1.358.472 1.791.314.428.752.643 1.312.643s.996-.219 1.306-.657c.314-.437.471-1.078.471-1.921 0-.747-.161-1.339-.485-1.777-.319-.437-.754-.656-1.305-.656-.543 0-.974.216-1.293.649-.319.429-.478 1.071-.478 1.928Zm10.493-2.256a4.162 4.162 0 0 0-.677-.055c-.76 0-1.273.292-1.538.875V148h-1.66v-7.396h1.585l.041.827c.401-.643.957-.964 1.668-.964.237 0 .433.032.588.095l-.007 1.559ZM99.924 148c-.073-.141-.137-.371-.192-.69a2.587 2.587 0 0 1-1.941.827c-.743 0-1.349-.212-1.818-.636a2.034 2.034 0 0 1-.704-1.572c0-.789.291-1.393.875-1.812.587-.424 1.426-.636 2.515-.636h1.019v-.485c0-.383-.107-.688-.322-.916-.214-.232-.54-.349-.977-.349-.378 0-.688.096-.93.288a.867.867 0 0 0-.362.717h-1.661c0-.405.134-.784.403-1.134a2.67 2.67 0 0 1 1.094-.834 3.87 3.87 0 0 1 1.552-.301c.866 0 1.556.219 2.071.656.515.433.779 1.044.793 1.832v3.336c0 .665.093 1.196.28 1.593V148h-1.695Zm-1.825-1.196c.328 0 .635-.08.922-.24.292-.159.51-.373.657-.642v-1.395h-.896c-.615 0-1.078.107-1.388.322-.31.214-.464.517-.464.909 0 .319.104.574.314.765.214.187.5.281.855.281Zm4.689-2.557c0-1.148.269-2.064.807-2.748.542-.688 1.26-1.032 2.153-1.032.843 0 1.506.294 1.989.882l.075-.745h1.498v7.17c0 .971-.303 1.737-.91 2.297-.601.561-1.415.841-2.44.841a3.931 3.931 0 0 1-1.593-.342c-.515-.223-.907-.517-1.176-.882l.787-.998c.51.607 1.139.91 1.886.91.552 0 .987-.151 1.306-.452.319-.296.478-.733.478-1.312v-.499c-.478.533-1.116.8-1.914.8-.866 0-1.574-.344-2.126-1.033-.546-.688-.82-1.64-.82-2.857Zm1.654.144c0 .742.151 1.328.452 1.756.305.424.726.636 1.264.636.67 0 1.167-.287 1.49-.861v-3.254c-.314-.561-.806-.841-1.476-.841-.547 0-.973.217-1.278.65-.301.433-.452 1.071-.452 1.914Zm9.837 3.746c-1.052 0-1.907-.331-2.563-.991-.652-.666-.978-1.55-.978-2.653v-.205c0-.738.142-1.397.424-1.976a3.273 3.273 0 0 1 1.203-1.36 3.176 3.176 0 0 1 1.723-.485c1.007 0 1.784.321 2.331.964.551.642.827 1.551.827 2.727v.67h-4.833c.05.611.253 1.094.608 1.449.361.356.812.534 1.354.534.761 0 1.381-.308 1.859-.923l.896.854a3.008 3.008 0 0 1-1.19 1.032 3.711 3.711 0 0 1-1.661.363Zm-.198-6.337c-.456 0-.825.159-1.107.478-.278.319-.456.764-.534 1.333h3.165v-.123c-.036-.556-.184-.975-.444-1.258-.26-.287-.62-.43-1.08-.43Zm14.889-2.359h-3.104V148h-1.716v-8.559h-3.076v-1.394h7.896v1.394Zm3.178 6.18 1.504-5.017h1.771l-2.94 8.517c-.451 1.244-1.216 1.866-2.296 1.866-.242 0-.509-.041-.8-.123v-1.285l.314.021c.419 0 .734-.078.944-.233.214-.15.382-.405.505-.765l.24-.636-2.598-7.362h1.791l1.565 5.017Zm10.712-1.244c0 1.144-.259 2.058-.779 2.741-.519.679-1.217 1.019-2.092 1.019-.811 0-1.46-.267-1.948-.8v3.507h-1.661v-10.24h1.531l.068.751c.488-.592 1.151-.888 1.99-.888.902 0 1.608.337 2.119 1.012.515.669.772 1.601.772 2.795v.103Zm-1.654-.144c0-.738-.148-1.323-.444-1.756-.292-.433-.711-.65-1.258-.65-.679 0-1.167.28-1.463.841v3.281c.301.574.793.862 1.477.862.528 0 .941-.212 1.237-.636.301-.429.451-1.076.451-1.942Zm6.323 3.904c-1.052 0-1.907-.331-2.563-.991-.652-.666-.978-1.55-.978-2.653v-.205c0-.738.142-1.397.424-1.976a3.273 3.273 0 0 1 1.203-1.36 3.176 3.176 0 0 1 1.723-.485c1.007 0 1.784.321 2.331.964.551.642.827 1.551.827 2.727v.67h-4.833c.05.611.253 1.094.608 1.449.361.356.812.534 1.354.534.761 0 1.381-.308 1.859-.923l.896.854a3.008 3.008 0 0 1-1.19 1.032 3.711 3.711 0 0 1-1.661.363Zm-.198-6.337c-.456 0-.825.159-1.107.478-.278.319-.456.764-.534 1.333h3.165v-.123c-.036-.556-.184-.975-.444-1.258-.26-.287-.62-.43-1.08-.43Z"/><rect width="149" height="39" x="35.5" y="123.5" stroke="#2097F6" rx="19.5"/></g><path fill="#2097F6" d="M66.845 92.302V96h-1.73v-9.953h3.808c1.112 0 1.994.29 2.645.868.657.579.985 1.344.985 2.297 0 .975-.322 1.734-.964 2.276-.638.543-1.534.814-2.687.814h-2.057Zm0-1.388h2.078c.615 0 1.084-.144 1.408-.43.324-.292.485-.712.485-1.258 0-.538-.164-.967-.492-1.286-.328-.323-.78-.49-1.353-.499h-2.126v3.473ZM78.247 96c-.073-.141-.137-.371-.191-.69a2.586 2.586 0 0 1-1.942.827c-.743 0-1.349-.212-1.818-.636a2.034 2.034 0 0 1-.704-1.572c0-.789.291-1.392.875-1.812.588-.424 1.426-.636 2.515-.636h1.019v-.485c0-.383-.107-.688-.321-.916-.215-.232-.54-.349-.978-.349-.378 0-.688.096-.93.288a.869.869 0 0 0-.362.717H73.75c0-.405.135-.784.403-1.134a2.678 2.678 0 0 1 1.094-.834c.465-.2.982-.301 1.552-.301.866 0 1.556.219 2.071.656.515.433.78 1.044.793 1.832v3.336c0 .665.093 1.196.28 1.593V96h-1.695Zm-1.825-1.196c.328 0 .636-.08.923-.24.291-.16.51-.373.656-.642v-1.395h-.895c-.616 0-1.078.107-1.388.322-.31.214-.465.517-.465.909 0 .319.105.574.314.765.215.187.5.28.855.28Zm8.852-4.683a4.105 4.105 0 0 0-.676-.055c-.761 0-1.274.292-1.538.875V96h-1.662v-7.397h1.586l.041.828c.401-.643.957-.964 1.668-.964.237 0 .433.032.588.096l-.007 1.558ZM90.538 96c-.073-.141-.137-.371-.191-.69a2.586 2.586 0 0 1-1.942.827c-.743 0-1.349-.212-1.818-.636a2.034 2.034 0 0 1-.704-1.572c0-.789.291-1.392.875-1.812.588-.424 1.426-.636 2.515-.636h1.019v-.485c0-.383-.107-.688-.321-.916-.215-.232-.54-.349-.978-.349-.378 0-.688.096-.93.288a.869.869 0 0 0-.362.717H86.04c0-.405.134-.784.403-1.134a2.677 2.677 0 0 1 1.094-.834c.465-.2.982-.301 1.552-.301.866 0 1.556.219 2.071.656.515.433.78 1.044.793 1.832v3.336c0 .665.093 1.196.28 1.593V96h-1.695Zm-1.825-1.196c.328 0 .636-.08.923-.24.291-.16.51-.373.656-.642v-1.395h-.895c-.616 0-1.078.107-1.388.322-.31.214-.465.517-.465.909 0 .319.105.574.314.765.215.187.5.28.855.28Zm6.542-6.2.048.772c.52-.606 1.23-.91 2.133-.91.988 0 1.665.38 2.03 1.136.538-.757 1.294-1.135 2.269-1.135.816 0 1.422.225 1.819.677.401.45.606 1.116.615 1.996V96h-1.661v-4.813c0-.469-.103-.813-.308-1.032-.205-.219-.544-.328-1.018-.328-.379 0-.689.103-.93.308-.237.2-.403.465-.5.793L99.76 96h-1.661v-4.867c-.023-.87-.468-1.306-1.333-1.306-.666 0-1.137.271-1.415.814V96h-1.662v-7.397h1.566Zm13.877 7.533c-1.053 0-1.907-.33-2.564-.992-.651-.665-.977-1.549-.977-2.652v-.205c0-.738.141-1.397.424-1.975a3.27 3.27 0 0 1 1.203-1.36 3.171 3.171 0 0 1 1.722-.486c1.008 0 1.785.321 2.331.964.552.642.828 1.551.828 2.727v.67h-4.833c.05.61.253 1.094.608 1.45.36.355.811.532 1.354.532.761 0 1.38-.307 1.859-.922l.895.854a3.007 3.007 0 0 1-1.189 1.032 3.72 3.72 0 0 1-1.661.363Zm-.198-6.337c-.456 0-.825.16-1.108.478-.278.32-.456.764-.533 1.333h3.165v-.123c-.036-.556-.185-.975-.444-1.257-.26-.288-.62-.431-1.08-.431Zm6.542-2.994v1.797h1.305v1.231h-1.305v4.129c0 .282.054.488.164.615.114.123.314.185.601.185.192 0 .385-.023.581-.069v1.285a4.09 4.09 0 0 1-1.093.158c-1.277 0-1.915-.704-1.915-2.113v-4.19h-1.216v-1.23h1.216v-1.798h1.662Zm5.837 9.33c-1.052 0-1.907-.33-2.563-.99-.652-.666-.978-1.55-.978-2.653v-.205c0-.738.142-1.397.424-1.975a3.27 3.27 0 0 1 1.203-1.36 3.175 3.175 0 0 1 1.723-.486c1.007 0 1.784.321 2.331.964.552.642.827 1.551.827 2.727v.67h-4.833c.05.61.253 1.094.609 1.45.36.355.811.532 1.353.532.761 0 1.381-.307 1.86-.922l.895.854a3.013 3.013 0 0 1-1.189 1.032 3.724 3.724 0 0 1-1.662.363Zm-.198-6.336c-.455 0-.825.16-1.107.478-.278.32-.456.764-.533 1.333h3.165v-.123c-.037-.556-.185-.975-.445-1.257-.259-.288-.619-.431-1.08-.431Zm8.333.321a4.106 4.106 0 0 0-.677-.055c-.761 0-1.273.292-1.538.875V96h-1.661v-7.397h1.586l.041.828c.401-.643.957-.964 1.668-.964.237 0 .433.032.588.096l-.007 1.558Zm11.478-2.68h-3.104V96h-1.716v-8.559h-3.076v-1.394h7.896v1.394Zm3.178 6.18 1.504-5.017h1.771l-2.94 8.517c-.451 1.244-1.216 1.866-2.296 1.866-.242 0-.509-.04-.8-.123V97.58l.314.02c.419 0 .734-.077.944-.232.214-.15.382-.405.505-.765l.24-.636-2.598-7.362h1.791l1.565 5.017Zm10.712-1.244c0 1.144-.259 2.058-.779 2.741-.519.68-1.217 1.019-2.092 1.019-.811 0-1.46-.267-1.948-.8v3.507h-1.661v-10.24h1.531l.069.752c.487-.593 1.15-.89 1.989-.89.902 0 1.609.338 2.119 1.013.515.67.772 1.601.772 2.795v.103Zm-1.654-.144c0-.738-.148-1.324-.444-1.756-.292-.433-.711-.65-1.258-.65-.679 0-1.167.28-1.463.841v3.281c.301.574.793.862 1.477.862.528 0 .941-.212 1.237-.636.301-.429.451-1.076.451-1.942Zm6.323 3.904c-1.052 0-1.907-.33-2.563-.992-.652-.665-.978-1.549-.978-2.652v-.205c0-.738.142-1.397.424-1.975a3.27 3.27 0 0 1 1.203-1.36 3.172 3.172 0 0 1 1.723-.486c1.007 0 1.784.321 2.331.964.551.642.827 1.551.827 2.727v.67h-4.833c.05.61.253 1.094.609 1.45.36.355.811.532 1.353.532.761 0 1.381-.307 1.859-.922l.896.854a3.01 3.01 0 0 1-1.19 1.032c-.492.242-1.045.363-1.661.363Zm-.198-6.337c-.456 0-.825.16-1.107.478-.278.32-.456.764-.534 1.333h3.166v-.123c-.037-.556-.185-.975-.445-1.257-.26-.288-.62-.431-1.08-.431ZM8 1h204v-2H8v2Zm211 7v236h2V8h-2Zm-7 243H8v2h204v-2ZM1 244V8h-2v236h2Zm7 7a7 7 0 0 1-7-7h-2a9 9 0 0 0 9 9v-2Zm211-7a7 7 0 0 1-7 7v2a9 9 0 0 0 9-9h-2ZM212 1a7 7 0 0 1 7 7h2a9 9 0 0 0-9-9v2ZM8-1a9 9 0 0 0-9 9h2a7 7 0 0 1 7-7v-2Z"/></g><defs><filter id="a" width="224" height="256" x="0" y="0" color-interpolation-filters="sRGB" filterUnits="userSpaceOnUse"><feFlood flood-opacity="0" result="BackgroundImageFix"/><feColorMatrix in="SourceAlpha" values="0 0 0 0 0 0 0 0 0 0 0 0 0 0 0 0 0 0 127 0"/><feOffset dx="4" dy="4"/><feColorMatrix values="0 0 0 0 0.513733 0 0 0 0 0.767915 0 0 0 0 0.970833 0 0 0 1 0"/><feBlend in2="BackgroundImageFix" result="effect1_dropShadow"/><feBlend in="SourceGraphic" in2="effect1_dropShadow" result="shape"/></filter><filter id="b" width="184" height="44" x="20" y="71" color-interpolation-filters="sRGB" filterUnits="userSpaceOnUse"><feFlood flood-opacity="0" result="BackgroundImageFix"/><feColorMatrix in="SourceAlpha" values="0 0 0 0 0 0 0 0 0 0 0 0 0 0 0 0 0 0 127 0"/><feOffset dx="4" dy="4"/><feColorMatrix values="0 0 0 0 0.513733 0 0 0 0 0.767915 0 0 0 0 0.970833 0 0 0 1 0"/><feBlend in2="BackgroundImageFix" result="effect1_dropShadow"/><feBlend in="SourceGraphic" in2="effect1_dropShadow" result="shape"/></filter><filter id="c" width="184" height="44" x="20" y="175" color-interpolation-filters="sRGB" filterUnits="userSpaceOnUse"><feFlood flood-opacity="0" result="BackgroundImageFix"/><feColorMatrix in="SourceAlpha" values="0 0 0 0 0 0 0 0 0 0 0 0 0 0 0 0 0 0 127 0"/><feOffset dx="4" dy="4"/><feColorMatrix values="0 0 0 0 0.513733 0 0 0 0 0.767915 0 0 0 0 0.970833 0 0 0 1 0"/><feBlend in2="BackgroundImageFix" result="effect1_dropShadow"/><feBlend in="SourceGraphic" in2="effect1_dropShadow" result="shape"/></filter><filter id="d" width="154" height="44" x="35" y="123" color-interpolation-filters="sRGB" filterUnits="userSpaceOnUse"><feFlood flood-opacity="0" result="BackgroundImageFix"/><feColorMatrix in="SourceAlpha" values="0 0 0 0 0 0 0 0 0 0 0 0 0 0 0 0 0 0 127 0"/><feOffset dx="4" dy="4"/><feColorMatrix values="0 0 0 0 0.513733 0 0 0 0 0.767915 0 0 0 0 0.970833 0 0 0 1 0"/><feBlend in2="BackgroundImageFix" result="effect1_dropShadow"/><feBlend in="SourceGraphic" in2="effect1_dropShadow" result="shape"/></filter></defs></svg>