<svg xmlns="http://www.w3.org/2000/svg" width="24" height="32" fill="none"><path fill="#030405" d="M23.066 23.608c-.334-5.877-7.78-8.548-8.493-8.822-.03-.015-.03-.044-.015-.073l7.68-7.652v-.823a.254.254 0 0 0-.248-.246H7.839V0L2.618 1.083v.78h.29s1.28 0 1.28 1.27v2.845H.146c-.072 0-.145.072-.145.144v1.805h4.203v9.804c0 3.076 1.993 5.213 5.483 4.924.742-.058 1.425-.347 2.007-.722a.907.907 0 0 0 .422-.765V20.2c-1.135.751-2.094.708-2.094.708-2.211 0-2.167-2.787-2.167-2.787V7.927h10.18l-7.33 7.335c-.014.968-.029 1.718-.029 1.733 0 .029.015.043.044.043 6.719 1.126 8.537 5.444 8.537 6.7 0 0 .727 6.108-5.425 6.526 0 0-4.029.174-4.741-1.43-.03-.057 0-.115.058-.143.669-.304 1.12-.896 1.12-1.69 0-1.184-.727-2.151-2.254-2.151-1.237 0-2.255.967-2.255 2.151 0 0-.581 5.14 8.057 4.996 9.861-.173 9.25-8.39 9.25-8.39Z"/></svg>