<svg xmlns="http://www.w3.org/2000/svg" width="84" height="29" fill="none"><path fill="#030405" d="M41.57 6.556H36.39v13.988H35.12V6.556h-5.165V5.483h11.614v1.073Zm4.784 14.21c-.957 0-1.822-.235-2.582-.706a4.822 4.822 0 0 1-1.796-1.963c-.433-.837-.643-1.78-.643-2.813v-.445c0-1.073.21-2.042.63-2.905.42-.864.996-1.544 1.743-2.028.747-.485 1.56-.746 2.425-.746 1.364 0 2.439.458 3.238 1.387.8.929 1.193 2.198 1.193 3.808v.693h-8.01v.236c0 1.27.368 2.329 1.089 3.166.734.851 1.651 1.27 2.753 1.27.668 0 1.245-.118 1.756-.367.511-.235.97-.628 1.39-1.164l.773.589c-.891 1.321-2.215 1.989-3.959 1.989Zm-.223-10.56c-.93 0-1.717.34-2.36 1.021-.642.68-1.022 1.597-1.166 2.748h6.725v-.13c-.04-1.074-.34-1.95-.918-2.63-.576-.681-1.337-1.008-2.28-1.008Zm8.102 9.304h7.289v1.047h-8.823v-.916l6.804-9.212h-6.594V9.356h8.154v.93l-6.83 9.224Zm9.071-4.724c0-1.072.21-2.04.63-2.904.42-.864 1.009-1.531 1.77-2.016.76-.484 1.625-.72 2.595-.72 1.494 0 2.7.524 3.631 1.571.931 1.047 1.39 2.434 1.39 4.161v.262c0 1.086-.21 2.054-.63 2.918-.419.864-1.009 1.53-1.77 2.002-.76.471-1.625.707-2.595.707-1.481 0-2.7-.524-3.631-1.57-.93-1.047-1.39-2.435-1.39-4.162v-.248Zm1.246.34c0 1.336.354 2.435 1.035 3.298.695.864 1.6 1.283 2.727 1.283 1.114 0 2.032-.432 2.727-1.283.695-.863 1.035-1.989 1.035-3.402v-.236c0-.85-.157-1.635-.471-2.355-.315-.706-.76-1.256-1.338-1.649a3.413 3.413 0 0 0-1.966-.588c-1.101 0-2.006.431-2.714 1.295-.694.864-1.048 2.002-1.048 3.402l.013.236ZM82.6 17.706c0-.615-.249-1.113-.747-1.48-.498-.366-1.232-.666-2.242-.876-1.01-.21-1.77-.458-2.32-.72-.55-.274-.957-.601-1.22-.994-.261-.393-.406-.864-.406-1.426 0-.89.367-1.61 1.115-2.186.734-.575 1.69-.863 2.844-.863 1.246 0 2.255.314 3.016.929.76.615 1.14 1.426 1.14 2.42h-1.245c0-.654-.276-1.203-.826-1.635-.55-.432-1.246-.654-2.085-.654-.812 0-1.468.183-1.966.536-.498.367-.747.838-.747 1.413 0 .563.21.995.616 1.296.406.3 1.167.589 2.255.85 1.088.262 1.9.524 2.451.812.538.288.944.64 1.206 1.047.262.405.393.902.393 1.478 0 .942-.38 1.701-1.14 2.264-.76.563-1.757.85-2.989.85-1.31 0-2.373-.313-3.172-.942-.813-.628-1.22-1.426-1.22-2.394h1.246c.052.72.354 1.282.917 1.688.564.405 1.311.602 2.242.602.865 0 1.56-.197 2.098-.563.524-.392.786-.877.786-1.452Zm-61.81 3.69c-.301-5.326-7.013-7.747-7.656-7.995-.026-.014-.026-.04-.013-.066l6.922-6.935v-.746a.23.23 0 0 0-.223-.223H7.066V0L2.36.981v.707h.262s1.153 0 1.153 1.152v2.577H.131c-.065 0-.131.066-.131.131v1.636h3.789v8.885c0 2.787 1.796 4.724 4.942 4.462.668-.052 1.284-.314 1.809-.654a.823.823 0 0 0 .38-.694v-.877c-1.023.68-1.888.642-1.888.642-1.992 0-1.953-2.526-1.953-2.526V7.184h9.176L9.648 13.83c-.013.877-.026 1.558-.026 1.57 0 .027.013.04.04.04 6.056 1.02 7.695 4.933 7.695 6.071 0 0 .655 5.536-4.89 5.915 0 0-3.631.157-4.274-1.295-.026-.053 0-.105.053-.131.603-.275 1.01-.812 1.01-1.531 0-1.073-.656-1.95-2.033-1.95-1.114 0-2.032.877-2.032 1.95 0 0-.524 4.658 7.263 4.527 8.888-.157 8.337-7.602 8.337-7.602Z"/></svg>