<?xml version="1.0" encoding="UTF-8" standalone="no"?>
<svg
   xmlns:dc="http://purl.org/dc/elements/1.1/"
   xmlns:cc="http://creativecommons.org/ns#"
   xmlns:rdf="http://www.w3.org/1999/02/22-rdf-syntax-ns#"
   xmlns:svg="http://www.w3.org/2000/svg"
   xmlns="http://www.w3.org/2000/svg"
   xmlns:sodipodi="http://sodipodi.sourceforge.net/DTD/sodipodi-0.dtd"
   xmlns:inkscape="http://www.inkscape.org/namespaces/inkscape"
   version="1.1"
   viewBox="0.0 0.0 960.8477690288714 327.3490813648294"
   stroke-miterlimit="10"
   id="svg85"
   sodipodi:docname="event-well-light.svg"
   inkscape:version="0.92.2 (5c3e80d, 2017-08-06)"
   stroke-linecap="square"
   stroke="none"
   fill="none">
  <metadata
     id="metadata91">
    <rdf:RDF>
      <cc:Work
         rdf:about="">
        <dc:format>image/svg+xml</dc:format>
        <dc:type
           rdf:resource="http://purl.org/dc/dcmitype/StillImage" />
        <dc:title></dc:title>
      </cc:Work>
    </rdf:RDF>
  </metadata>
  <defs
     id="defs89" />
  <sodipodi:namedview
     pagecolor="#ffffff"
     bordercolor="#666666"
     borderopacity="1"
     objecttolerance="10"
     gridtolerance="10"
     guidetolerance="10"
     inkscape:pageopacity="1"
     inkscape:pageshadow="2"
     inkscape:window-width="1920"
     inkscape:window-height="1058"
     id="namedview87"
     showgrid="false"
     inkscape:zoom="0.80345713"
     inkscape:cx="360.22102"
     inkscape:cy="98.334527"
     inkscape:window-x="3832"
     inkscape:window-y="1072"
     inkscape:window-maximized="1"
     inkscape:current-layer="svg85"
     scale-x="0.9" />
  <clipPath
     id="p.0">
    <path
       d="m0 0l960.8478 0l0 327.3491l-960.8478 0l0 -327.3491z"
       id="path2"
       clip-rule="nonzero" />
  </clipPath>
  <rect
     style="opacity:1;fill:#ffffff;fill-opacity:1;fill-rule:nonzero;stroke:none;stroke-width:5.82116222;stroke-linecap:butt;stroke-linejoin:miter;stroke-miterlimit:4;stroke-dasharray:none;stroke-dashoffset:0;stroke-opacity:1"
     id="rect853"
     width="960.84778"
     height="327.34909"
     x="0"
     y="0" />
  <g
     clip-path="url(#p.0)"
     id="g83">
    <path
       d="m0 0l960.8478 0l0 327.3491l-960.8478 0z"
       id="path5"
       fill-rule="evenodd"
       fill-opacity="0.0"
       fill="#000000" />
    <path
       d="m344.9344 13.015748l0 295.2441"
       id="path7"
       fill-rule="evenodd"
       fill-opacity="0.0"
       fill="#000000" />
    <path
       d="m344.9344 13.015748l0 295.2441"
       id="path9"
       stroke-dasharray="16.0,12.0"
       stroke-linejoin="round"
       stroke-linecap="butt"
       stroke-width="4.0"
       stroke="#000000"
       fill-rule="evenodd" />
    <path
       d="m408.24802 37.278214l175.11813 0l0 65.590294l-13.118408 13.11837l-161.99973 0z"
       id="path11"
       fill-rule="evenodd"
       fill-opacity="0.0"
       fill="#000000" />
    <path
       d="m570.24774 115.98688l2.6237183 -10.494698l10.49469 -2.6236725z"
       id="path13"
       fill-rule="evenodd"
       fill-opacity="0.0"
       fill="#000000" />
    <path
       d="m570.24774 115.98688l2.6237183 -10.494698l10.49469 -2.6236725l-13.118408 13.11837l-161.99973 0l0 -78.708664l175.11813 0l0 65.590294"
       id="path15"
       fill-rule="evenodd"
       fill-opacity="0.0"
       fill="#000000" />
    <path
       d="m570.24774 115.98688l2.6237183 -10.494698l10.49469 -2.6236725z"
       id="path17"
       fill-rule="evenodd"
       fill-opacity="0.2"
       fill="#000000" />
    <path
       d="m570.24774 115.98688l2.6237183 -10.494698l10.49469 -2.6236725l-13.118408 13.11837l-161.99973 0l0 -78.708664l175.11813 0l0 65.590294"
       id="path19"
       stroke-linejoin="round"
       stroke-linecap="butt"
       stroke-width="4.0"
       stroke="#000000"
       fill-rule="evenodd" />
    <path
       d="m456.52762 70.975235l-6.0 0l0 4.0625l7.03125 0l0 2.515625l-10.15625 0l0 -15.15625l10.140625 0l0 2.53125l-7.015625 0l0 3.609375l6.0 0l0 2.4375zm6.6168823 2.90625l2.09375 -7.59375l3.140625 0l-3.796875 11.265625l-2.875 0l-3.796875 -11.265625l3.140625 0l2.09375 7.59375zm11.611938 3.875q-2.484375 0 -4.046875 -1.515625q-1.546875 -1.515625 -1.546875 -4.046875l0 -0.296875q0 -1.703125 0.65625 -3.03125q0.65625 -1.34375 1.859375 -2.0625q1.203125 -0.71875 2.75 -0.71875q2.3125 0 3.625 1.453125q1.328125 1.453125 1.328125 4.125l0 1.234375l-7.171875 0q0.15625 1.109375 0.890625 1.78125q0.734375 0.65625 1.859375 0.65625q1.734375 0 2.71875 -1.265625l1.46875 1.65625q-0.671875 0.96875 -1.828125 1.5q-1.15625 0.53125 -2.5625 0.53125zm-0.34375 -9.25q-0.890625 0 -1.453125 0.609375q-0.5625 0.609375 -0.71875 1.734375l4.1875 0l0 -0.25q-0.015625 -1.0 -0.546875 -1.546875q-0.515625 -0.546875 -1.46875 -0.546875zm9.450317 -2.21875l0.09375 1.296875q1.21875 -1.5 3.25 -1.5q1.78125 0 2.65625 1.046875q0.875 1.046875 0.890625 3.140625l0 7.28125l-3.0 0l0 -7.203125q0 -0.96875 -0.421875 -1.390625q-0.40625 -0.4375 -1.375 -0.4375q-1.28125 0 -1.90625 1.078125l0 7.953125l-3.015625 0l0 -11.265625l2.828125 0zm12.788757 -2.765625l0 2.765625l1.921875 0l0 2.203125l-1.921875 0l0 5.625q0 0.625 0.234375 0.90625q0.234375 0.265625 0.921875 0.265625q0.5 0 0.875 -0.078125l0 2.28125q-0.875 0.265625 -1.8125 0.265625q-3.171875 0 -3.234375 -3.1875l0 -6.078125l-1.640625 0l0 -2.203125l1.640625 0l0 -2.765625l3.015625 0zm20.908417 9.65625l2.046875 -10.78125l3.109375 0l-3.359375 15.15625l-3.140625 0l-2.46875 -10.140625l-2.46875 10.140625l-3.140625 0l-3.375 -15.15625l3.125 0l2.046875 10.765625l2.5 -10.765625l2.640625 0l2.484375 10.78125zm11.516296 4.578125q-2.484375 0 -4.046875 -1.515625q-1.546875 -1.515625 -1.546875 -4.046875l0 -0.296875q0 -1.703125 0.65625 -3.03125q0.65625 -1.34375 1.859375 -2.0625q1.203125 -0.71875 2.75 -0.71875q2.3125 0 3.625 1.453125q1.328125 1.453125 1.328125 4.125l0 1.234375l-7.171875 0q0.15625 1.109375 0.890625 1.78125q0.734375 0.65625 1.859375 0.65625q1.734375 0 2.71875 -1.265625l1.46875 1.65625q-0.671875 0.96875 -1.828125 1.5q-1.15625 0.53125 -2.5625 0.53125zm-0.34375 -9.25q-0.890625 0 -1.453125 0.609375q-0.5625 0.609375 -0.71875 1.734375l4.1875 0l0 -0.25q-0.015625 -1.0 -0.546875 -1.546875q-0.515625 -0.546875 -1.46875 -0.546875zm9.856567 9.046875l-3.015625 0l0 -16.0l3.015625 0l0 16.0zm5.654846 0l-3.015625 0l0 -16.0l3.015625 0l0 16.0z"
       id="path21"
       fill-rule="nonzero"
       fill="#000000" />
    <path
       d="m408.24933 143.77165l417.7008 0l0 112.91295l-22.58313 22.58313l-395.11768 0z"
       id="path23"
       fill-rule="evenodd"
       fill-opacity="0.0"
       fill="#000000" />
    <path
       d="m803.367 279.26773l4.5166016 -18.066528l18.066528 -4.5166016z"
       id="path25"
       fill-rule="evenodd"
       fill-opacity="0.0"
       fill="#000000" />
    <path
       d="m803.367 279.26773l4.5166016 -18.066528l18.066528 -4.5166016l-22.58313 22.58313l-395.11768 0l0 -135.49608l417.7008 0l0 112.91295"
       id="path27"
       fill-rule="evenodd"
       fill-opacity="0.0"
       fill="#000000" />
    <path
       d="m803.367 279.26773l4.5166016 -18.066528l18.066528 -4.5166016z"
       id="path29"
       fill-rule="evenodd"
       fill-opacity="0.2"
       fill="#000000" />
    <path
       d="m803.367 279.26773l4.5166016 -18.066528l18.066528 -4.5166016l-22.58313 22.58313l-395.11768 0l0 -135.49608l417.7008 0l0 112.91295"
       id="path31"
       stroke-linejoin="round"
       stroke-linecap="butt"
       stroke-width="4.0"
       stroke="#000000"
       fill-rule="evenodd" />
    <path
       d="m589.94214 170.12665l-5.484375 0l-1.046875 3.125l-3.3125 0l5.640625 -15.15625l2.890625 0l5.671875 15.15625l-3.3125 0l-1.046875 -3.125zm-4.640625 -2.53125l3.796875 0l-1.90625 -5.671875l-1.890625 5.671875zm16.861084 4.515625q-1.109375 1.34375 -3.078125 1.34375q-1.8125 0 -2.765625 -1.03125q-0.953125 -1.046875 -0.984375 -3.0625l0 -7.375l3.015625 0l0 7.28125q0 1.75 1.609375 1.75q1.53125 0 2.09375 -1.0625l0 -7.96875l3.015625 0l0 11.265625l-2.828125 0l-0.078125 -1.140625zm9.87207 -1.078125q0.828125 0 1.34375 -0.453125q0.53125 -0.46875 0.546875 -1.21875l2.828125 0q-0.015625 1.140625 -0.625 2.09375q-0.609375 0.953125 -1.6875 1.484375q-1.0625 0.515625 -2.359375 0.515625q-2.40625 0 -3.8125 -1.53125q-1.390625 -1.53125 -1.390625 -4.25l0 -0.1875q0 -2.609375 1.375 -4.15625q1.390625 -1.546875 3.8125 -1.546875q2.109375 0 3.390625 1.203125q1.28125 1.1875 1.296875 3.1875l-2.828125 0q-0.015625 -0.875 -0.546875 -1.421875q-0.515625 -0.546875 -1.359375 -0.546875q-1.0625 0 -1.59375 0.765625q-0.53125 0.765625 -0.53125 2.484375l0 0.3125q0 1.75 0.53125 2.515625q0.53125 0.75 1.609375 0.75zm10.044128 -11.8125l0 2.765625l1.921875 0l0 2.203125l-1.921875 0l0 5.625q0 0.625 0.234375 0.90625q0.234375 0.265625 0.921875 0.265625q0.5 0 0.875 -0.078125l0 2.28125q-0.875 0.265625 -1.8125 0.265625q-3.171875 0 -3.234375 -3.1875l0 -6.078125l-1.640625 0l0 -2.203125l1.640625 0l0 -2.765625l3.015625 0zm6.769104 14.03125l-3.015625 0l0 -11.265625l3.015625 0l0 11.265625zm-3.1875 -14.1875q0 -0.671875 0.453125 -1.109375q0.453125 -0.4375 1.234375 -0.4375q0.765625 0 1.21875 0.4375q0.46875 0.4375 0.46875 1.109375q0 0.6875 -0.46875 1.125q-0.46875 0.4375 -1.234375 0.4375q-0.75 0 -1.21875 -0.4375q-0.453125 -0.4375 -0.453125 -1.125zm5.201721 8.453125q0 -1.6875 0.640625 -3.0q0.65625 -1.3125 1.859375 -2.015625q1.21875 -0.71875 2.828125 -0.71875q2.28125 0 3.71875 1.390625q1.4375 1.390625 1.609375 3.78125l0.015625 0.78125q0 2.59375 -1.453125 4.15625q-1.4375 1.5625 -3.875 1.5625q-2.4375 0 -3.890625 -1.5625q-1.453125 -1.5625 -1.453125 -4.25l0 -0.125zm3.015625 0.21875q0 1.59375 0.59375 2.453125q0.609375 0.84375 1.734375 0.84375q1.09375 0 1.703125 -0.828125q0.625 -0.84375 0.625 -2.6875q0 -1.578125 -0.625 -2.4375q-0.609375 -0.875 -1.71875 -0.875q-1.109375 0 -1.71875 0.859375q-0.59375 0.859375 -0.59375 2.671875zm12.27832 -5.75l0.09375 1.296875q1.21875 -1.5 3.25 -1.5q1.78125 0 2.65625 1.046875q0.875 1.046875 0.890625 3.140625l0 7.28125l-3.0 0l0 -7.203125q0 -0.96875 -0.421875 -1.390625q-0.40625 -0.4375 -1.375 -0.4375q-1.28125 0 -1.90625 1.078125l0 7.953125l-3.015625 0l0 -11.265625l2.828125 0z"
       id="path33"
       fill-rule="nonzero"
       fill="#000000" />
    <path
       d="m417.70865 181.63518l398.77164 0l0 87.27559l-398.77164 0z"
       id="path35"
       fill-rule="evenodd"
       fill-opacity="0.0"
       fill="#000000" />
    <path
       d="m436.03677 203.21143q0 0.234375 -0.015625 0.609375q-0.015625 0.359375 -0.03125 0.671875l-6.09375 0q0 0.609375 0.1875 1.078125q0.1875 0.46875 0.53125 0.78125q0.34375 0.3125 0.8125 0.484375q0.484375 0.15625 1.0625 0.15625q0.671875 0 1.4375 -0.109375q0.78125 -0.109375 1.609375 -0.34375l0 1.765625q-0.359375 0.109375 -0.78125 0.1875q-0.40625 0.078125 -0.84375 0.140625q-0.4375 0.0625 -0.890625 0.09375q-0.453125 0.03125 -0.859375 0.03125q-1.0625 0 -1.90625 -0.296875q-0.828125 -0.296875 -1.421875 -0.875q-0.578125 -0.59375 -0.890625 -1.453125q-0.3125 -0.875 -0.3125 -2.015625q0 -1.125 0.3125 -2.046875q0.3125 -0.9375 0.875 -1.59375q0.5625 -0.65625 1.375 -1.015625q0.8125 -0.359375 1.796875 -0.359375q0.984375 0 1.734375 0.3125q0.765625 0.296875 1.265625 0.84375q0.515625 0.546875 0.78125 1.3125q0.265625 0.75 0.265625 1.640625zm-2.265625 -0.3125q0.015625 -0.546875 -0.140625 -0.953125q-0.140625 -0.40625 -0.390625 -0.671875q-0.25 -0.265625 -0.578125 -0.390625q-0.328125 -0.125 -0.71875 -0.125q-0.828125 0 -1.375 0.5625q-0.53125 0.5625 -0.640625 1.578125l3.84375 0zm9.976044 5.65625l0 -6.03125q0 -1.515625 -1.125 -1.515625q-0.5625 0 -1.078125 0.453125q-0.515625 0.453125 -1.09375 1.234375l0 5.859375l-2.21875 0l0 -9.25l1.921875 0l0.0625 1.359375q0.28125 -0.359375 0.578125 -0.640625q0.3125 -0.296875 0.65625 -0.5q0.359375 -0.203125 0.765625 -0.3125q0.421875 -0.109375 0.921875 -0.109375q0.71875 0 1.234375 0.234375q0.53125 0.234375 0.890625 0.65625q0.359375 0.421875 0.53125 1.015625q0.1875 0.59375 0.1875 1.328125l0 6.21875l-2.234375 0zm12.382294 -0.09375q-0.609375 0.140625 -1.21875 0.21875q-0.609375 0.078125 -1.15625 0.078125q-0.90625 0 -1.578125 -0.1875q-0.65625 -0.1875 -1.09375 -0.578125q-0.421875 -0.390625 -0.625 -1.0q-0.203125 -0.609375 -0.203125 -1.4375l0 -4.53125l-2.5 0l0 -1.71875l2.5 0l0 -2.375l2.265625 -0.59375l0 2.96875l3.609375 0l0 1.71875l-3.609375 0l0 4.359375q0 0.796875 0.359375 1.203125q0.375 0.40625 1.234375 0.40625q0.546875 0 1.0625 -0.09375q0.515625 -0.09375 0.953125 -0.21875l0 1.78125zm8.569794 -5.5625q0.015625 -0.515625 -0.046875 -0.875q-0.0625 -0.375 -0.21875 -0.609375q-0.140625 -0.234375 -0.359375 -0.34375q-0.21875 -0.109375 -0.515625 -0.109375q-0.484375 0 -1.015625 0.40625q-0.515625 0.40625 -1.140625 1.328125l0 5.859375l-2.28125 0l0 -9.25l2.015625 0l0.078125 1.34375q0.234375 -0.359375 0.515625 -0.640625q0.28125 -0.28125 0.625 -0.484375q0.359375 -0.203125 0.78125 -0.3125q0.4375 -0.109375 0.953125 -0.109375q0.703125 0 1.234375 0.25q0.546875 0.234375 0.90625 0.703125q0.375 0.46875 0.546875 1.1875q0.1875 0.71875 0.15625 1.65625l-2.234375 0zm9.866669 4.640625q-0.484375 1.203125 -1.015625 2.109375q-0.515625 0.90625 -1.140625 1.515625q-0.625 0.609375 -1.40625 0.90625q-0.765625 0.3125 -1.71875 0.3125q-0.21875 0 -0.5 -0.03125q-0.265625 -0.015625 -0.546875 -0.0625l0 -1.890625q0.109375 0.03125 0.25 0.046875q0.140625 0.015625 0.296875 0.03125q0.15625 0.015625 0.3125 0.015625q0.15625 0.015625 0.296875 0.015625q0.390625 0 0.71875 -0.140625q0.328125 -0.140625 0.59375 -0.40625q0.28125 -0.265625 0.5 -0.625q0.234375 -0.359375 0.40625 -0.78125l-3.671875 -9.25l2.484375 0l1.921875 5.234375l0.578125 1.703125l0.5625 -1.625l1.9375 -5.3125l2.390625 0l-3.25 8.234375zm23.280212 -3.78125q0 1.28125 -0.359375 2.21875q-0.359375 0.921875 -1.0 1.546875q-0.640625 0.609375 -1.515625 0.90625q-0.875 0.28125 -1.90625 0.28125q-1.015625 0 -1.890625 -0.15625q-0.859375 -0.140625 -1.65625 -0.390625l0 -12.484375l2.21875 0l0 3.03125l-0.09375 1.8125q0.515625 -0.640625 1.171875 -1.03125q0.671875 -0.390625 1.609375 -0.390625q0.828125 0 1.453125 0.328125q0.640625 0.328125 1.078125 0.9375q0.4375 0.59375 0.65625 1.46875q0.234375 0.859375 0.234375 1.921875zm-2.328125 0.09375q0 -0.765625 -0.109375 -1.296875q-0.109375 -0.546875 -0.328125 -0.890625q-0.203125 -0.34375 -0.5 -0.5q-0.28125 -0.15625 -0.671875 -0.15625q-0.5625 0 -1.078125 0.453125q-0.515625 0.453125 -1.09375 1.234375l0 4.046875q0.265625 0.09375 0.65625 0.171875q0.390625 0.0625 0.78125 0.0625q0.53125 0 0.96875 -0.21875q0.4375 -0.21875 0.734375 -0.625q0.3125 -0.40625 0.46875 -0.984375q0.171875 -0.578125 0.171875 -1.296875zm9.710419 -7.078125q0 0.296875 -0.109375 0.5625q-0.109375 0.265625 -0.3125 0.46875q-0.1875 0.1875 -0.453125 0.296875q-0.265625 0.109375 -0.578125 0.109375q-0.3125 0 -0.578125 -0.109375q-0.265625 -0.109375 -0.46875 -0.296875q-0.1875 -0.203125 -0.296875 -0.46875q-0.109375 -0.265625 -0.109375 -0.5625q0 -0.3125 0.109375 -0.5625q0.109375 -0.265625 0.296875 -0.46875q0.203125 -0.203125 0.46875 -0.3125q0.265625 -0.125 0.578125 -0.125q0.3125 0 0.578125 0.125q0.265625 0.109375 0.453125 0.3125q0.203125 0.203125 0.3125 0.46875q0.109375 0.25 0.109375 0.5625zm-2.46875 4.25l-2.609375 0l0 -1.71875l4.890625 0l0 7.515625l2.671875 0l0 1.734375l-7.875 0l0 -1.734375l2.921875 0l0 -5.796875zm13.101074 7.53125l-0.0625 -1.359375q-0.296875 0.34375 -0.609375 0.640625q-0.296875 0.296875 -0.65625 0.5q-0.359375 0.203125 -0.765625 0.3125q-0.40625 0.109375 -0.890625 0.109375q-0.828125 0 -1.4687805 -0.328125q-0.625 -0.328125 -1.0625 -0.921875q-0.4375 -0.609375 -0.671875 -1.46875q-0.21875 -0.875 -0.21875 -1.9375q0 -1.28125 0.359375 -2.203125q0.359375 -0.9375 1.0 -1.546875q0.640625 -0.625 1.5156555 -0.921875q0.875 -0.296875 1.90625 -0.296875q0.34375 0 0.6875 0.046875q0.359375 0.046875 0.625 0.125l0 -3.625l2.234375 0l0 12.875l-1.921875 0zm-4.0625305 -4.5625q0 0.765625 0.09375 1.3125q0.10940552 0.546875 0.31253052 0.890625q0.203125 0.34375 0.5 0.515625q0.3125 0.15625 0.6875 0.15625q0.5625 0 1.078125 -0.453125q0.515625 -0.46875 1.078125 -1.25l0 -4.046875q-0.265625 -0.109375 -0.65625 -0.171875q-0.375 -0.0625 -0.765625 -0.0625q-0.546875 0 -0.96875 0.21875q-0.421875 0.21875 -0.734375 0.625q-0.296875 0.390625 -0.46878052 0.96875q-0.15625 0.578125 -0.15625 1.296875zm14.132294 8.390625q-2.21875 -1.875 -3.328125 -4.015625q-1.09375 -2.15625 -1.09375 -4.640625q0 -1.390625 0.328125 -2.625q0.328125 -1.234375 0.921875 -2.3125q0.59375 -1.078125 1.40625 -2.03125q0.828125 -0.953125 1.8125 -1.78125l1.265625 1.265625q-1.765625 1.59375 -2.65625 3.453125q-0.890625 1.84375 -0.890625 3.875q0 2.0625 0.890625 3.984375q0.890625 1.90625 2.65625 3.484375l-1.3125 1.34375zm6.741699 -17.40625q2.234375 1.859375 3.328125 4.015625q1.09375 2.140625 1.09375 4.640625q0 1.375 -0.328125 2.609375q-0.328125 1.234375 -0.921875 2.328125q-0.578125 1.09375 -1.40625 2.03125q-0.8125 0.953125 -1.796875 1.78125l-1.265625 -1.265625q1.78125 -1.59375 2.671875 -3.453125q0.890625 -1.859375 0.890625 -3.90625q0 -2.046875 -0.890625 -3.953125q-0.890625 -1.921875 -2.671875 -3.515625l1.296875 -1.3125zm24.639587 17.1875q-1.890625 0 -2.828125 -0.90625q-0.921875 -0.90625 -0.921875 -2.859375l0 -2.328125q0 -0.9375 -0.421875 -1.40625q-0.40625 -0.46875 -1.390625 -0.46875l-0.5625 0l0 -1.71875l0.5625 0q0.5 0 0.84375 -0.109375q0.34375 -0.109375 0.5625 -0.328125q0.21875 -0.21875 0.3125 -0.5625q0.09375 -0.34375 0.09375 -0.8125l0 -1.59375q0 -0.953125 0.21875 -1.65625q0.21875 -0.703125 0.671875 -1.171875q0.453125 -0.484375 1.15625 -0.71875q0.703125 -0.25 1.703125 -0.25l0.765625 0l0 1.71875l-0.578125 0q-0.4375 0 -0.796875 0.109375q-0.34375 0.09375 -0.59375 0.328125q-0.25 0.234375 -0.390625 0.625q-0.140625 0.390625 -0.140625 0.96875l0 1.59375q0 0.671875 -0.109375 1.15625q-0.109375 0.484375 -0.359375 0.8125q-0.234375 0.328125 -0.59375 0.5q-0.359375 0.171875 -0.859375 0.25q0.984375 0.109375 1.453125 0.765625q0.46875 0.640625 0.46875 2.0l0 2.3125q0 0.59375 0.140625 0.984375q0.140625 0.390625 0.390625 0.625q0.25 0.234375 0.59375 0.328125q0.359375 0.109375 0.796875 0.109375l0.578125 0l0 1.703125l-0.765625 0z"
       id="path37"
       fill-rule="nonzero"
       fill="#000000" />
    <path
       d="m456.55136 225.61142q0 0.234375 -0.015625 0.609375q-0.015625 0.359375 -0.03125 0.671875l-6.09375 0q0 0.609375 0.1875 1.078125q0.1875 0.46875 0.53125 0.78125q0.34375 0.3125 0.8125 0.484375q0.484375 0.15625 1.0625 0.15625q0.671875 0 1.4375 -0.109375q0.78125 -0.109375 1.609375 -0.34375l0 1.765625q-0.359375 0.109375 -0.78125 0.1875q-0.40625 0.078125 -0.84375 0.140625q-0.4375 0.0625 -0.890625 0.09375q-0.453125 0.03125 -0.859375 0.03125q-1.0625 0 -1.90625 -0.296875q-0.828125 -0.296875 -1.421875 -0.875q-0.578125 -0.59375 -0.890625 -1.453125q-0.3125 -0.875 -0.3125 -2.015625q0 -1.125 0.3125 -2.046875q0.3125 -0.9375 0.875 -1.59375q0.5625 -0.65625 1.375 -1.015625q0.8125 -0.359375 1.796875 -0.359375q0.984375 0 1.734375 0.3125q0.765625 0.296875 1.265625 0.84375q0.515625 0.546875 0.78125 1.3125q0.265625 0.75 0.265625 1.640625zm-2.265625 -0.3125q0.015625 -0.546875 -0.140625 -0.953125q-0.140625 -0.40625 -0.390625 -0.671875q-0.25 -0.265625 -0.578125 -0.390625q-0.328125 -0.125 -0.71875 -0.125q-0.828125 0 -1.375 0.5625q-0.53125 0.5625 -0.640625 1.578125l3.84375 0zm10.991669 5.65625l0 -6.296875q0 -0.359375 -0.015625 -0.609375q-0.015625 -0.265625 -0.078125 -0.4375q-0.046875 -0.171875 -0.15625 -0.25q-0.109375 -0.09375 -0.28125 -0.09375q-0.28125 0 -0.5625 0.390625q-0.265625 0.375 -0.625 1.296875l0 6.0l-1.890625 0l0 -6.296875q0 -0.359375 -0.03125 -0.609375q-0.015625 -0.265625 -0.078125 -0.4375q-0.046875 -0.171875 -0.15625 -0.25q-0.109375 -0.09375 -0.28125 -0.09375q-0.25 0 -0.546875 0.390625q-0.28125 0.375 -0.640625 1.296875l0 6.0l-1.921875 0l0 -9.25l1.65625 0l0.03125 1.34375q0.203125 -0.40625 0.40625 -0.703125q0.203125 -0.296875 0.421875 -0.484375q0.234375 -0.1875 0.484375 -0.265625q0.265625 -0.078125 0.59375 -0.078125q0.78125 0 1.1875 0.40625q0.40625 0.40625 0.453125 1.125q0.21875 -0.40625 0.421875 -0.703125q0.21875 -0.296875 0.453125 -0.484375q0.234375 -0.1875 0.5 -0.265625q0.28125 -0.078125 0.609375 -0.078125q1.0 0 1.484375 0.703125q0.484375 0.703125 0.484375 2.09375l0 6.640625l-1.921875 0zm9.179169 -11.78125q0 0.296875 -0.109375 0.5625q-0.109375 0.265625 -0.3125 0.46875q-0.1875 0.1875 -0.453125 0.296875q-0.265625 0.109375 -0.578125 0.109375q-0.3125 0 -0.578125 -0.109375q-0.265625 -0.109375 -0.46875 -0.296875q-0.1875 -0.203125 -0.296875 -0.46875q-0.109375 -0.265625 -0.109375 -0.5625q0 -0.3125 0.109375 -0.5625q0.109375 -0.265625 0.296875 -0.46875q0.203125 -0.203125 0.46875 -0.3125q0.265625 -0.125 0.578125 -0.125q0.3125 0 0.578125 0.125q0.265625 0.109375 0.453125 0.3125q0.203125 0.203125 0.3125 0.46875q0.109375 0.25 0.109375 0.5625zm-2.46875 4.25l-2.609375 0l0 -1.71875l4.890625 0l0 7.515625l2.671875 0l0 1.734375l-7.875 0l0 -1.734375l2.921875 0l0 -5.796875zm14.913544 7.4375q-0.609375 0.140625 -1.21875 0.21875q-0.609375 0.078125 -1.15625 0.078125q-0.90625 0 -1.578125 -0.1875q-0.65625 -0.1875 -1.09375 -0.578125q-0.421875 -0.390625 -0.625 -1.0q-0.203125 -0.609375 -0.203125 -1.4375l0 -4.53125l-2.5 0l0 -1.71875l2.5 0l0 -2.375l2.265625 -0.59375l0 2.96875l3.609375 0l0 1.71875l-3.609375 0l0 4.359375q0 0.796875 0.359375 1.203125q0.375 0.40625 1.234375 0.40625q0.546875 0 1.0625 -0.09375q0.515625 -0.09375 0.953125 -0.21875l0 1.78125zm8.413544 0.296875l-6.140625 -5.171875l6.140625 -5.15625l1.421875 1.4375l-4.515625 3.703125l4.515625 3.75l-1.421875 1.4375zm10.351044 -0.203125l0 -5.1875l-4.046875 0l0 5.1875l-2.25 0l0 -11.90625l2.25 0l0 4.78125l4.046875 0l0 -4.78125l2.234375 0l0 11.90625l-2.234375 0zm9.819824 -11.78125q0 0.296875 -0.109375 0.5625q-0.109375 0.265625 -0.3125 0.46875q-0.1875 0.1875 -0.453125 0.296875q-0.265625 0.109375 -0.578125 0.109375q-0.3125 0 -0.578125 -0.109375q-0.265625 -0.109375 -0.46875 -0.296875q-0.1875 -0.203125 -0.296875 -0.46875q-0.109375 -0.265625 -0.109375 -0.5625q0 -0.3125 0.109375 -0.5625q0.109375 -0.265625 0.296875 -0.46875q0.203125 -0.203125 0.46875 -0.3125q0.265625 -0.125 0.578125 -0.125q0.3125 0 0.578125 0.125q0.265625 0.109375 0.453125 0.3125q0.203125 0.203125 0.3125 0.46875q0.109375 0.25 0.109375 0.5625zm-2.46875 4.25l-2.6094055 0l0 -1.71875l4.8906555 0l0 7.515625l2.671875 0l0 1.734375l-7.8750305 0l0 -1.734375l2.9219055 0l0 -5.796875zm14.210388 -0.109375q0.265625 0.328125 0.359375 0.6875q0.109375 0.34375 0.109375 0.703125q0 0.78125 -0.265625 1.375q-0.265625 0.578125 -0.765625 0.984375q-0.484375 0.40625 -1.171875 0.609375q-0.671875 0.203125 -1.484375 0.203125q-0.484375 0 -0.890625 -0.09375q-0.40625 -0.09375 -0.625 -0.21875q-0.15625 0.140625 -0.265625 0.328125q-0.109375 0.1875 -0.109375 0.4375q0 0.140625 0.078125 0.28125q0.078125 0.140625 0.21875 0.265625q0.140625 0.109375 0.328125 0.1875q0.203125 0.0625 0.4375 0.078125l2.203125 0.078125q0.734375 0.015625 1.328125 0.1875q0.609375 0.171875 1.03125 0.484375q0.421875 0.3125 0.65625 0.75q0.234375 0.4375 0.234375 1.0q0 0.65625 -0.296875 1.21875q-0.28125 0.578125 -0.875 1.0q-0.578125 0.421875 -1.453125 0.671875q-0.875 0.25 -2.03125 0.25q-1.125 0 -1.9375 -0.1875q-0.796875 -0.171875 -1.3125 -0.5q-0.515625 -0.3125 -0.765625 -0.75q-0.25 -0.4375 -0.25 -0.96875q0 -0.3125 0.078125 -0.59375q0.09375 -0.265625 0.25 -0.53125q0.171875 -0.25 0.40625 -0.484375q0.25 -0.234375 0.59375 -0.46875q-0.453125 -0.25 -0.6875 -0.65625q-0.21875 -0.40625 -0.21875 -0.859375q0 -0.3125 0.078125 -0.578125q0.078125 -0.265625 0.203125 -0.5q0.140625 -0.25 0.3125 -0.484375q0.171875 -0.234375 0.359375 -0.453125q-0.328125 -0.328125 -0.5625 -0.796875q-0.21875 -0.484375 -0.21875 -1.203125q0 -0.78125 0.28125 -1.390625q0.28125 -0.609375 0.765625 -1.015625q0.5 -0.421875 1.171875 -0.625q0.6875 -0.21875 1.484375 -0.21875q0.40625 0 0.78125 0.046875q0.390625 0.03125 0.6875 0.140625l3.21875 0l0 1.609375l-1.46875 0zm-5.234375 8.875q0 0.53125 0.53125 0.78125q0.546875 0.265625 1.53125 0.265625q0.640625 0 1.0625 -0.125q0.4375 -0.109375 0.703125 -0.3125q0.28125 -0.1875 0.390625 -0.453125q0.125 -0.25 0.125 -0.515625q0 -0.25 -0.109375 -0.421875q-0.109375 -0.15625 -0.328125 -0.28125q-0.203125 -0.109375 -0.484375 -0.171875q-0.265625 -0.046875 -0.609375 -0.078125l-1.953125 -0.03125q-0.265625 0.1875 -0.4375 0.34375q-0.171875 0.171875 -0.265625 0.328125q-0.09375 0.15625 -0.125 0.3125q-0.03125 0.171875 -0.03125 0.359375zm0.375 -7.421875q0 0.734375 0.421875 1.171875q0.4375 0.421875 1.21875 0.421875q0.40625 0 0.703125 -0.125q0.3125 -0.140625 0.515625 -0.359375q0.203125 -0.234375 0.296875 -0.53125q0.109375 -0.3125 0.109375 -0.640625q0 -0.765625 -0.4375 -1.203125q-0.4375 -0.4375 -1.203125 -0.4375q-0.40625 0 -0.71875 0.140625q-0.3125 0.140625 -0.515625 0.375q-0.1875 0.21875 -0.296875 0.53125q-0.09375 0.3125 -0.09375 0.65625zm13.694824 6.1875l0 -6.03125q0 -1.515625 -1.125 -1.515625q-0.5625 0 -1.078125 0.453125q-0.515625 0.453125 -1.09375 1.234375l0 5.859375l-2.21875 0l0 -12.875l2.21875 0l0 3.171875l-0.109375 1.671875q0.28125 -0.328125 0.578125 -0.59375q0.296875 -0.28125 0.625 -0.453125q0.34375 -0.1875 0.734375 -0.28125q0.390625 -0.09375 0.859375 -0.09375q0.71875 0 1.234375 0.234375q0.53125 0.234375 0.890625 0.65625q0.359375 0.421875 0.53125 1.015625q0.1875 0.59375 0.1875 1.328125l0 6.21875l-2.234375 0zm12.804138 -5.34375q0 0.234375 -0.015625 0.609375q-0.015625 0.359375 -0.03125 0.671875l-6.09375 0q0 0.609375 0.1875 1.078125q0.1875 0.46875 0.53125 0.78125q0.34375 0.3125 0.8125 0.484375q0.484375 0.15625 1.0625 0.15625q0.671875 0 1.4375 -0.109375q0.78125 -0.109375 1.609375 -0.34375l0 1.765625q-0.359375 0.109375 -0.78125 0.1875q-0.40625 0.078125 -0.84375 0.140625q-0.4375 0.0625 -0.890625 0.09375q-0.453125 0.03125 -0.859375 0.03125q-1.0625 0 -1.90625 -0.296875q-0.828125 -0.296875 -1.421875 -0.875q-0.578125 -0.59375 -0.890625 -1.453125q-0.3125 -0.875 -0.3125 -2.015625q0 -1.125 0.3125 -2.046875q0.3125 -0.9375 0.875 -1.59375q0.5625 -0.65625 1.375 -1.015625q0.8125 -0.359375 1.796875 -0.359375q0.984375 0 1.734375 0.3125q0.765625 0.296875 1.265625 0.84375q0.515625 0.546875 0.78125 1.3125q0.265625 0.75 0.265625 1.640625zm-2.265625 -0.3125q0.015625 -0.546875 -0.140625 -0.953125q-0.140625 -0.40625 -0.390625 -0.671875q-0.25 -0.265625 -0.578125 -0.390625q-0.328125 -0.125 -0.71875 -0.125q-0.828125 0 -1.375 0.5625q-0.53125 0.5625 -0.640625 1.578125l3.84375 0zm12.101074 2.9375q0 0.78125 -0.359375 1.34375q-0.34375 0.5625 -0.921875 0.921875q-0.578125 0.34375 -1.3125 0.5q-0.734375 0.15625 -1.5 0.15625q-1.015625 0 -1.84375 -0.09375q-0.8125 -0.09375 -1.546875 -0.265625l0 -2.015625q0.859375 0.359375 1.703125 0.515625q0.859375 0.15625 1.609375 0.15625q0.875 0 1.3125 -0.265625q0.4375 -0.28125 0.4375 -0.734375q0 -0.203125 -0.09375 -0.375q-0.09375 -0.171875 -0.34375 -0.328125q-0.25 -0.171875 -0.71875 -0.328125q-0.453125 -0.171875 -1.1875 -0.390625q-0.671875 -0.1875 -1.1875 -0.421875q-0.515625 -0.25 -0.859375 -0.578125q-0.328125 -0.328125 -0.5 -0.75q-0.171875 -0.4375 -0.171875 -1.03125q0 -0.5625 0.25 -1.0625q0.265625 -0.5 0.765625 -0.875q0.5 -0.375 1.25 -0.59375q0.765625 -0.21875 1.78125 -0.21875q0.875 0 1.546875 0.09375q0.671875 0.078125 1.1875 0.1875l0 1.828125q-0.78125 -0.265625 -1.484375 -0.359375q-0.703125 -0.109375 -1.375 -0.109375q-0.6875 0 -1.109375 0.25q-0.40625 0.234375 -0.40625 0.671875q0 0.21875 0.078125 0.390625q0.078125 0.15625 0.3125 0.3125q0.25 0.140625 0.6875 0.3125q0.4375 0.171875 1.140625 0.375q0.796875 0.21875 1.34375 0.484375q0.546875 0.265625 0.875 0.59375q0.34375 0.328125 0.484375 0.75q0.15625 0.40625 0.15625 0.953125zm10.257263 2.625q-0.609375 0.140625 -1.21875 0.21875q-0.609375 0.078125 -1.15625 0.078125q-0.90625 0 -1.578125 -0.1875q-0.65625 -0.1875 -1.09375 -0.578125q-0.421875 -0.390625 -0.625 -1.0q-0.203125 -0.609375 -0.203125 -1.4375l0 -4.53125l-2.5 0l0 -1.71875l2.5 0l0 -2.375l2.265625 -0.59375l0 2.96875l3.609375 0l0 1.71875l-3.609375 0l0 4.359375q0 0.796875 0.359375 1.203125q0.375 0.40625 1.234375 0.40625q0.546875 0 1.0625 -0.09375q0.515625 -0.09375 0.953125 -0.21875l0 1.78125zm2.5229492 0.09375l0 -11.90625l3.84375 0q2.03125 0 3.046875 0.71875q1.015625 0.703125 1.015625 2.140625q0 0.453125 -0.109375 0.875q-0.09375 0.421875 -0.3125 0.78125q-0.21875 0.34375 -0.546875 0.625q-0.328125 0.265625 -0.78125 0.421875q0.453125 0.078125 0.859375 0.296875q0.40625 0.203125 0.703125 0.546875q0.3125 0.34375 0.484375 0.8125q0.1875 0.453125 0.1875 1.03125q0 1.828125 -1.234375 2.75q-1.21875 0.90625 -3.515625 0.90625l-3.640625 0zm5.578125 -8.65625q0 -0.328125 -0.109375 -0.59375q-0.109375 -0.28125 -0.359375 -0.46875q-0.234375 -0.203125 -0.609375 -0.296875q-0.375 -0.109375 -0.921875 -0.109375l-1.359375 0l0 3.140625l1.359375 0q0.546875 0 0.921875 -0.125q0.390625 -0.125 0.625 -0.359375q0.25 -0.234375 0.34375 -0.53125q0.109375 -0.3125 0.109375 -0.65625zm-1.78125 6.828125q0.53125 0 0.9375 -0.140625q0.40625 -0.140625 0.671875 -0.375q0.28125 -0.25 0.421875 -0.578125q0.140625 -0.328125 0.140625 -0.6875q0 -0.78125 -0.578125 -1.21875q-0.578125 -0.4375 -1.765625 -0.4375l-1.40625 0l0 3.4375l1.578125 0zm12.007263 -9.953125q0 0.296875 -0.109375 0.5625q-0.109375 0.265625 -0.3125 0.46875q-0.1875 0.1875 -0.453125 0.296875q-0.265625 0.109375 -0.578125 0.109375q-0.3125 0 -0.578125 -0.109375q-0.265625 -0.109375 -0.46875 -0.296875q-0.1875 -0.203125 -0.296875 -0.46875q-0.109375 -0.265625 -0.109375 -0.5625q0 -0.3125 0.109375 -0.5625q0.109375 -0.265625 0.296875 -0.46875q0.203125 -0.203125 0.46875 -0.3125q0.265625 -0.125 0.578125 -0.125q0.3125 0 0.578125 0.125q0.265625 0.109375 0.453125 0.3125q0.203125 0.203125 0.3125 0.46875q0.109375 0.25 0.109375 0.5625zm-2.46875 4.25l-2.609375 0l0 -1.71875l4.890625 0l0 7.515625l2.671875 0l0 1.734375l-7.875 0l0 -1.734375l2.921875 0l0 -5.796875zm13.101074 7.53125l-0.0625 -1.359375q-0.296875 0.34375 -0.609375 0.640625q-0.296875 0.296875 -0.65625 0.5q-0.359375 0.203125 -0.765625 0.3125q-0.40625 0.109375 -0.890625 0.109375q-0.828125 0 -1.46875 -0.328125q-0.625 -0.328125 -1.0625 -0.921875q-0.4375 -0.609375 -0.671875 -1.46875q-0.21875 -0.875 -0.21875 -1.9375q0 -1.28125 0.359375 -2.203125q0.359375 -0.9375 1.0 -1.546875q0.640625 -0.625 1.515625 -0.921875q0.875 -0.296875 1.90625 -0.296875q0.34375 0 0.6875 0.046875q0.359375 0.046875 0.625 0.125l0 -3.625l2.234375 0l0 12.875l-1.921875 0zm-4.0625 -4.5625q0 0.765625 0.09375 1.3125q0.109375 0.546875 0.3125 0.890625q0.203125 0.34375 0.5 0.515625q0.3125 0.15625 0.6875 0.15625q0.5625 0 1.078125 -0.453125q0.515625 -0.46875 1.078125 -1.25l0 -4.046875q-0.265625 -0.109375 -0.65625 -0.171875q-0.375 -0.0625 -0.765625 -0.0625q-0.546875 0 -0.96875 0.21875q-0.421875 0.21875 -0.734375 0.625q-0.296875 0.390625 -0.46875 0.96875q-0.15625 0.578125 -0.15625 1.296875zm8.585388 -5.515625l0 -1.828125l7.53125 0l0 1.828125l-2.625 0l0 8.234375l2.625 0l0 1.84375l-7.53125 0l0 -1.84375l2.625 0l0 -8.234375l-2.625 0zm15.679199 10.078125l0 -6.03125q0 -1.515625 -1.125 -1.515625q-0.5625 0 -1.078125 0.453125q-0.515625 0.453125 -1.09375 1.234375l0 5.859375l-2.21875 0l0 -9.25l1.921875 0l0.0625 1.359375q0.28125 -0.359375 0.578125 -0.640625q0.3125 -0.296875 0.65625 -0.5q0.359375 -0.203125 0.765625 -0.3125q0.421875 -0.109375 0.921875 -0.109375q0.71875 0 1.234375 0.234375q0.53125 0.234375 0.890625 0.65625q0.359375 0.421875 0.53125 1.015625q0.1875 0.59375 0.1875 1.328125l0 6.21875l-2.234375 0zm12.226013 -0.359375q-0.65625 0.265625 -1.359375 0.390625q-0.6875 0.125 -1.453125 0.125q-1.109375 0 -1.984375 -0.296875q-0.875 -0.296875 -1.484375 -0.890625q-0.609375 -0.59375 -0.9375 -1.46875q-0.3125 -0.875 -0.3125 -2.015625q0 -1.109375 0.34375 -2.015625q0.34375 -0.90625 0.984375 -1.53125q0.640625 -0.640625 1.53125 -0.984375q0.90625 -0.359375 2.0 -0.359375q0.90625 0 1.515625 0.109375q0.625 0.09375 1.109375 0.234375l0 2.15625q-0.5625 -0.28125 -1.21875 -0.4375q-0.65625 -0.15625 -1.25 -0.15625q-0.625 0 -1.125 0.21875q-0.484375 0.203125 -0.828125 0.578125q-0.328125 0.375 -0.515625 0.90625q-0.171875 0.53125 -0.171875 1.171875q0 0.65625 0.1875 1.1875q0.203125 0.53125 0.546875 0.90625q0.359375 0.359375 0.84375 0.5625q0.5 0.1875 1.09375 0.1875q0.296875 0 0.609375 -0.03125q0.328125 -0.046875 0.65625 -0.125q0.328125 -0.078125 0.640625 -0.171875q0.3125 -0.109375 0.578125 -0.21875l0 1.96875zm8.726074 -5.296875q0.015625 -0.515625 -0.046875 -0.875q-0.0625 -0.375 -0.21875 -0.609375q-0.140625 -0.234375 -0.359375 -0.34375q-0.21875 -0.109375 -0.515625 -0.109375q-0.484375 0 -1.015625 0.40625q-0.515625 0.40625 -1.140625 1.328125l0 5.859375l-2.28125 0l0 -9.25l2.015625 0l0.078125 1.34375q0.234375 -0.359375 0.515625 -0.640625q0.28125 -0.28125 0.625 -0.484375q0.359375 -0.203125 0.78125 -0.3125q0.4375 -0.109375 0.953125 -0.109375q0.703125 0 1.234375 0.25q0.546875 0.234375 0.90625 0.703125q0.375 0.46875 0.546875 1.1875q0.1875 0.71875 0.15625 1.65625l-2.234375 0zm12.366638 0.3125q0 0.234375 -0.015625 0.609375q-0.015625 0.359375 -0.03125 0.671875l-6.09375 0q0 0.609375 0.1875 1.078125q0.1875 0.46875 0.53125 0.78125q0.34375 0.3125 0.8125 0.484375q0.484375 0.15625 1.0625 0.15625q0.671875 0 1.4375 -0.109375q0.78125 -0.109375 1.609375 -0.34375l0 1.765625q-0.359375 0.109375 -0.78125 0.1875q-0.40625 0.078125 -0.84375 0.140625q-0.4375 0.0625 -0.890625 0.09375q-0.453125 0.03125 -0.859375 0.03125q-1.0625 0 -1.90625 -0.296875q-0.828125 -0.296875 -1.421875 -0.875q-0.578125 -0.59375 -0.890625 -1.453125q-0.3125 -0.875 -0.3125 -2.015625q0 -1.125 0.3125 -2.046875q0.3125 -0.9375 0.875 -1.59375q0.5625 -0.65625 1.375 -1.015625q0.8125 -0.359375 1.796875 -0.359375q0.984375 0 1.734375 0.3125q0.765625 0.296875 1.265625 0.84375q0.515625 0.546875 0.78125 1.3125q0.265625 0.75 0.265625 1.640625zm-2.265625 -0.3125q0.015625 -0.546875 -0.140625 -0.953125q-0.140625 -0.40625 -0.390625 -0.671875q-0.25 -0.265625 -0.578125 -0.390625q-0.328125 -0.125 -0.71875 -0.125q-0.828125 0 -1.375 0.5625q-0.53125 0.5625 -0.640625 1.578125l3.84375 0zm10.257324 5.65625l-0.046875 -1.21875q-0.296875 0.3125 -0.625 0.578125q-0.3125 0.265625 -0.703125 0.453125q-0.375 0.1875 -0.828125 0.28125q-0.4375 0.109375 -0.984375 0.109375q-0.703125 0 -1.25 -0.203125q-0.53125 -0.203125 -0.90625 -0.578125q-0.359375 -0.375 -0.546875 -0.90625q-0.171875 -0.53125 -0.171875 -1.171875q0 -0.65625 0.265625 -1.203125q0.28125 -0.5625 0.84375 -0.953125q0.578125 -0.40625 1.421875 -0.625q0.859375 -0.234375 2.0 -0.234375l1.21875 0l0 -0.5625q0 -0.359375 -0.109375 -0.640625q-0.09375 -0.28125 -0.3125 -0.484375q-0.21875 -0.203125 -0.578125 -0.3125q-0.359375 -0.109375 -0.875 -0.109375q-0.828125 0 -1.625 0.1875q-0.796875 0.1875 -1.53125 0.53125l0 -1.78125q0.65625 -0.265625 1.53125 -0.4375q0.875 -0.171875 1.8125 -0.171875q1.015625 0 1.75 0.203125q0.75 0.1875 1.21875 0.578125q0.484375 0.390625 0.703125 0.984375q0.234375 0.578125 0.234375 1.359375l0 6.328125l-1.90625 0zm-0.3125 -4.09375l-1.359375 0q-0.5625 0 -0.953125 0.109375q-0.390625 0.109375 -0.640625 0.3125q-0.25 0.1875 -0.359375 0.4375q-0.109375 0.25 -0.109375 0.53125q0 0.5625 0.359375 0.859375q0.359375 0.296875 1.0 0.296875q0.453125 0 0.953125 -0.328125q0.515625 -0.34375 1.109375 -0.96875l0 -1.25zm12.413513 1.375q0 0.78125 -0.359375 1.34375q-0.34375 0.5625 -0.921875 0.921875q-0.578125 0.34375 -1.3125 0.5q-0.734375 0.15625 -1.5 0.15625q-1.015625 0 -1.84375 -0.09375q-0.8125 -0.09375 -1.546875 -0.265625l0 -2.015625q0.859375 0.359375 1.703125 0.515625q0.859375 0.15625 1.609375 0.15625q0.875 0 1.3125 -0.265625q0.4375 -0.28125 0.4375 -0.734375q0 -0.203125 -0.09375 -0.375q-0.09375 -0.171875 -0.34375 -0.328125q-0.25 -0.171875 -0.71875 -0.328125q-0.453125 -0.171875 -1.1875 -0.390625q-0.671875 -0.1875 -1.1875 -0.421875q-0.515625 -0.25 -0.859375 -0.578125q-0.328125 -0.328125 -0.5 -0.75q-0.171875 -0.4375 -0.171875 -1.03125q0 -0.5625 0.25 -1.0625q0.265625 -0.5 0.765625 -0.875q0.5 -0.375 1.25 -0.59375q0.765625 -0.21875 1.78125 -0.21875q0.875 0 1.546875 0.09375q0.671875 0.078125 1.1875 0.1875l0 1.828125q-0.78125 -0.265625 -1.484375 -0.359375q-0.703125 -0.109375 -1.375 -0.109375q-0.6875 0 -1.109375 0.25q-0.40625 0.234375 -0.40625 0.671875q0 0.21875 0.078125 0.390625q0.078125 0.15625 0.3125 0.3125q0.25 0.140625 0.6875 0.3125q0.4375 0.171875 1.140625 0.375q0.796875 0.21875 1.34375 0.484375q0.546875 0.265625 0.875 0.59375q0.34375 0.328125 0.484375 0.75q0.15625 0.40625 0.15625 0.953125zm10.679199 -2.625q0 0.234375 -0.015625 0.609375q-0.015625 0.359375 -0.03125 0.671875l-6.09375 0q0 0.609375 0.1875 1.078125q0.1875 0.46875 0.53125 0.78125q0.34375 0.3125 0.8125 0.484375q0.484375 0.15625 1.0625 0.15625q0.671875 0 1.4375 -0.109375q0.78125 -0.109375 1.609375 -0.34375l0 1.765625q-0.359375 0.109375 -0.78125 0.1875q-0.40625 0.078125 -0.84375 0.140625q-0.4375 0.0625 -0.890625 0.09375q-0.453125 0.03125 -0.859375 0.03125q-1.0625 0 -1.90625 -0.296875q-0.828125 -0.296875 -1.421875 -0.875q-0.578125 -0.59375 -0.890625 -1.453125q-0.3125 -0.875 -0.3125 -2.015625q0 -1.125 0.3125 -2.046875q0.3125 -0.9375 0.875 -1.59375q0.5625 -0.65625 1.375 -1.015625q0.8125 -0.359375 1.796875 -0.359375q0.984375 0 1.734375 0.3125q0.765625 0.296875 1.265625 0.84375q0.515625 0.546875 0.78125 1.3125q0.265625 0.75 0.265625 1.640625zm-2.265625 -0.3125q0.015625 -0.546875 -0.140625 -0.953125q-0.140625 -0.40625 -0.390625 -0.671875q-0.25 -0.265625 -0.578125 -0.390625q-0.328125 -0.125 -0.71875 -0.125q-0.828125 0 -1.375 0.5625q-0.53125 0.5625 -0.640625 1.578125l3.84375 0zm10.288513 5.65625l-0.0625 -1.359375q-0.296875 0.34375 -0.609375 0.640625q-0.296875 0.296875 -0.65625 0.5q-0.359375 0.203125 -0.765625 0.3125q-0.40625 0.109375 -0.890625 0.109375q-0.828125 0 -1.46875 -0.328125q-0.625 -0.328125 -1.0625 -0.921875q-0.4375 -0.609375 -0.671875 -1.46875q-0.21875 -0.875 -0.21875 -1.9375q0 -1.28125 0.359375 -2.203125q0.359375 -0.9375 1.0 -1.546875q0.640625 -0.625 1.515625 -0.921875q0.875 -0.296875 1.90625 -0.296875q0.34375 0 0.6875 0.046875q0.359375 0.046875 0.625 0.125l0 -3.625l2.234375 0l0 12.875l-1.921875 0zm-4.0625 -4.5625q0 0.765625 0.09375 1.3125q0.109375 0.546875 0.3125 0.890625q0.203125 0.34375 0.5 0.515625q0.3125 0.15625 0.6875 0.15625q0.5625 0 1.078125 -0.453125q0.515625 -0.46875 1.078125 -1.25l0 -4.046875q-0.265625 -0.109375 -0.65625 -0.171875q-0.375 -0.0625 -0.765625 -0.0625q-0.546875 0 -0.96875 0.21875q-0.421875 0.21875 -0.734375 0.625q-0.296875 0.390625 -0.46875 0.96875q-0.15625 0.578125 -0.15625 1.296875zm10.413574 -5.5625l6.140625 5.15625l-6.140625 5.171875l-1.40625 -1.4375l4.5 -3.71875l-4.5 -3.734375l1.40625 -1.4375zm13.976013 13.953125q-2.21875 -1.875 -3.328125 -4.015625q-1.09375 -2.15625 -1.09375 -4.640625q0 -1.390625 0.328125 -2.625q0.328125 -1.234375 0.921875 -2.3125q0.59375 -1.078125 1.40625 -2.03125q0.828125 -0.953125 1.8125 -1.78125l1.265625 1.265625q-1.765625 1.59375 -2.65625 3.453125q-0.890625 1.84375 -0.890625 3.875q0 2.0625 0.890625 3.984375q0.890625 1.90625 2.65625 3.484375l-1.3125 1.34375zm10.866699 -0.21875q-1.890625 0 -2.828125 -0.90625q-0.921875 -0.90625 -0.921875 -2.859375l0 -2.328125q0 -0.9375 -0.421875 -1.40625q-0.40625 -0.46875 -1.390625 -0.46875l-0.5625 0l0 -1.71875l0.5625 0q0.5 0 0.84375 -0.109375q0.34375 -0.109375 0.5625 -0.328125q0.21875 -0.21875 0.3125 -0.5625q0.09375 -0.34375 0.09375 -0.8125l0 -1.59375q0 -0.953125 0.21875 -1.65625q0.21875 -0.703125 0.671875 -1.171875q0.453125 -0.484375 1.15625 -0.71875q0.703125 -0.25 1.703125 -0.25l0.765625 0l0 1.71875l-0.578125 0q-0.4375 0 -0.796875 0.109375q-0.34375 0.09375 -0.59375 0.328125q-0.25 0.234375 -0.390625 0.625q-0.140625 0.390625 -0.140625 0.96875l0 1.59375q0 0.671875 -0.109375 1.15625q-0.109375 0.484375 -0.359375 0.8125q-0.234375 0.328125 -0.59375 0.5q-0.359375 0.171875 -0.859375 0.25q0.984375 0.109375 1.453125 0.765625q0.46875 0.640625 0.46875 2.0l0 2.3125q0 0.59375 0.140625 0.984375q0.140625 0.390625 0.390625 0.625q0.25 0.234375 0.59375 0.328125q0.359375 0.109375 0.796875 0.109375l0.578125 0l0 1.703125l-0.765625 0z"
       id="path39"
       fill-rule="nonzero"
       fill="#000000" />
    <path
       d="m748.6931 230.95517l0 -2.5625l2.5625 0l0 2.5625l-2.5625 0zm-6.21875 0l0 -2.5625l2.5625 0l0 2.5625l-2.5625 0zm-6.21875 0l0 -2.5625l2.5625 0l0 2.5625l-2.5625 0z"
       id="path41"
       fill-rule="nonzero"
       fill="#000000" />
    <path
       d="m766.0754 217.67392q1.90625 0 2.828125 0.90625q0.9375 0.90625 0.9375 2.890625l0 1.515625q0 0.953125 0.40625 1.421875q0.421875 0.46875 1.390625 0.46875l0.578125 0l0 1.71875l-0.578125 0q-0.484375 0 -0.84375 0.109375q-0.34375 0.09375 -0.5625 0.3125q-0.203125 0.21875 -0.296875 0.5625q-0.09375 0.34375 -0.09375 0.8125l0 2.40625q0 0.9375 -0.21875 1.640625q-0.21875 0.703125 -0.671875 1.171875q-0.453125 0.484375 -1.171875 0.71875q-0.703125 0.234375 -1.703125 0.234375l-0.75 0l0 -1.703125l0.578125 0q0.4375 0 0.78125 -0.109375q0.359375 -0.09375 0.609375 -0.34375q0.25 -0.234375 0.390625 -0.625q0.140625 -0.375 0.140625 -0.953125l0 -2.375q0 -0.671875 0.109375 -1.15625q0.109375 -0.5 0.34375 -0.8125q0.234375 -0.328125 0.59375 -0.5q0.375 -0.171875 0.859375 -0.25q-0.96875 -0.125 -1.4375 -0.765625q-0.46875 -0.65625 -0.46875 -2.0l0 -1.53125q0 -0.59375 -0.140625 -0.984375q-0.140625 -0.390625 -0.390625 -0.625q-0.25 -0.25 -0.609375 -0.34375q-0.34375 -0.09375 -0.78125 -0.09375l-0.578125 0l0 -1.71875l0.75 0zm10.913574 -0.296875q2.234375 1.859375 3.328125 4.015625q1.09375 2.140625 1.09375 4.640625q0 1.375 -0.328125 2.609375q-0.328125 1.234375 -0.921875 2.328125q-0.578125 1.09375 -1.40625 2.03125q-0.8125 0.953125 -1.796875 1.78125l-1.265625 -1.265625q1.78125 -1.59375 2.671875 -3.453125q0.890625 -1.859375 0.890625 -3.90625q0 -2.046875 -0.890625 -3.953125q-0.890625 -1.921875 -2.671875 -3.515625l1.296875 -1.3125z"
       id="path43"
       fill-rule="nonzero"
       fill="#000000" />
    <path
       d="m429.44302 240.07391q1.90625 0 2.828125 0.90625q0.9375 0.90625 0.9375 2.890625l0 1.515625q0 0.953125 0.40625 1.421875q0.421875 0.46875 1.390625 0.46875l0.578125 0l0 1.71875l-0.578125 0q-0.484375 0 -0.84375 0.109375q-0.34375 0.09375 -0.5625 0.3125q-0.203125 0.21875 -0.296875 0.5625q-0.09375 0.34375 -0.09375 0.8125l0 2.40625q0 0.9375 -0.21875 1.640625q-0.21875 0.703125 -0.671875 1.171875q-0.453125 0.484375 -1.171875 0.71875q-0.703125 0.234375 -1.703125 0.234375l-0.75 0l0 -1.703125l0.578125 0q0.4375 0 0.78125 -0.109375q0.359375 -0.09375 0.609375 -0.34375q0.25 -0.234375 0.390625 -0.625q0.140625 -0.375 0.140625 -0.953125l0 -2.375q0 -0.671875 0.109375 -1.15625q0.109375 -0.5 0.34375 -0.8125q0.234375 -0.328125 0.59375 -0.5q0.375 -0.171875 0.859375 -0.25q-0.96875 -0.125 -1.4375 -0.765625q-0.46875 -0.65625 -0.46875 -2.0l0 -1.53125q0 -0.59375 -0.140625 -0.984375q-0.140625 -0.390625 -0.390625 -0.625q-0.25 -0.25 -0.609375 -0.34375q-0.34375 -0.09375 -0.78125 -0.09375l-0.578125 0l0 -1.71875l0.75 0z"
       id="path45"
       fill-rule="nonzero"
       fill="#000000" />
    <path
       d="m816.4803 225.27296l52.068115 0l0 -148.62991l-285.17047 0"
       id="path47"
       fill-rule="evenodd"
       fill-opacity="0.0"
       fill="#000000" />
    <path
       d="m816.4803 225.27296l52.068115 0l0 -148.62991l-261.17047 0"
       id="path49"
       stroke-linejoin="round"
       stroke-linecap="butt"
       stroke-width="4.0"
       stroke="#000000"
       fill-rule="evenodd" />
    <path
       d="m607.3779 70.03612l-18.152344 6.606926l18.152344 6.6069336z"
       id="path51"
       stroke-linecap="butt"
       stroke-width="4.0"
       stroke="#000000"
       fill-rule="evenodd"
       fill="#000000" />
    <path
       d="m637.8058 34.627296l230.74017 0l0 42.015747l-230.74017 0z"
       id="path53"
       fill-rule="evenodd"
       fill-opacity="0.0"
       fill="#000000" />
    <path
       d="m656.27454 51.03167l-3.515625 0l0 10.515625l-1.640625 0l0 -10.515625l-3.53125 0l0 -1.390625l8.6875 0l0 1.390625zm10.366638 10.515625l-1.828125 0l-1.78125 -3.8125q-0.203125 -0.4375 -0.421875 -0.71875q-0.203125 -0.28125 -0.453125 -0.453125q-0.234375 -0.171875 -0.515625 -0.234375q-0.28125 -0.078125 -0.640625 -0.078125l-0.765625 0l0 5.296875l-1.625 0l0 -11.90625l3.1875 0q1.046875 0 1.78125 0.234375q0.75 0.21875 1.21875 0.640625q0.484375 0.40625 0.703125 0.984375q0.234375 0.578125 0.234375 1.28125q0 0.546875 -0.171875 1.046875q-0.15625 0.5 -0.484375 0.90625q-0.3125 0.40625 -0.796875 0.703125q-0.484375 0.28125 -1.09375 0.4375q0.5 0.171875 0.84375 0.609375q0.359375 0.421875 0.71875 1.140625l1.890625 3.921875zm-2.59375 -8.640625q0 -0.953125 -0.609375 -1.421875q-0.59375 -0.484375 -1.671875 -0.484375l-1.53125 0l0 3.9375l1.3125 0q0.578125 0 1.03125 -0.125q0.453125 -0.140625 0.78125 -0.390625q0.328125 -0.265625 0.5 -0.640625q0.1875 -0.375 0.1875 -0.875zm13.444824 8.640625l-1.765625 0l-0.84375 -2.59375l-4.953125 0l-0.828125 2.59375l-1.6875 0l3.953125 -11.90625l2.21875 0l3.90625 11.90625zm-3.0625 -4.046875l-2.015625 -6.359375l-2.015625 6.359375l4.03125 0zm12.335388 4.046875l-2.125 0l-3.46875 -7.421875l-1.0 -2.390625l0 6.0l0 3.8125l-1.515625 0l0 -11.90625l2.09375 0l3.3125 7.03125l1.1875 2.71875l0 -6.375l0 -3.375l1.515625 0l0 11.90625zm10.147949 -3.21875q0 0.84375 -0.34375 1.484375q-0.34375 0.625 -0.96875 1.0625q-0.609375 0.421875 -1.484375 0.625q-0.875 0.203125 -1.921875 0.203125q-0.46875 0 -0.9375 -0.03125q-0.46875 -0.03125 -0.90625 -0.09375q-0.421875 -0.046875 -0.8125 -0.109375q-0.375 -0.078125 -0.6875 -0.171875l0 -1.5625q0.671875 0.25 1.515625 0.40625q0.859375 0.140625 1.953125 0.140625q0.78125 0 1.328125 -0.125q0.5625 -0.125 0.90625 -0.359375q0.34375 -0.25 0.5 -0.59375q0.171875 -0.34375 0.171875 -0.796875q0 -0.46875 -0.28125 -0.8125q-0.265625 -0.34375 -0.703125 -0.609375q-0.4375 -0.28125 -1.0 -0.5q-0.546875 -0.21875 -1.140625 -0.453125q-0.578125 -0.234375 -1.140625 -0.515625q-0.5625 -0.28125 -1.0 -0.65625q-0.4375 -0.375 -0.703125 -0.890625q-0.265625 -0.515625 -0.265625 -1.21875q0 -0.609375 0.25 -1.1875q0.265625 -0.59375 0.796875 -1.046875q0.53125 -0.46875 1.375 -0.75q0.84375 -0.28125 2.015625 -0.28125q0.296875 0 0.640625 0.03125q0.359375 0.015625 0.71875 0.0625q0.359375 0.046875 0.703125 0.125q0.359375 0.0625 0.65625 0.125l0 1.46875q-0.703125 -0.203125 -1.40625 -0.3125q-0.6875 -0.109375 -1.34375 -0.109375q-1.40625 0 -2.0625 0.46875q-0.65625 0.46875 -0.65625 1.25q0 0.484375 0.265625 0.828125q0.28125 0.34375 0.71875 0.625q0.4375 0.265625 1.0 0.5q0.5625 0.21875 1.140625 0.453125q0.578125 0.234375 1.140625 0.515625q0.5625 0.28125 1.0 0.671875q0.4375 0.390625 0.703125 0.90625q0.265625 0.515625 0.265625 1.234375zm9.757263 -7.296875l-5.046875 0l0 3.859375l4.78125 0l0 1.359375l-4.78125 0l0 5.296875l-1.65625 0l0 -11.90625l6.703125 0l0 1.390625zm10.272949 10.515625l-6.765625 0l0 -11.90625l6.765625 0l0 1.359375l-5.140625 0l0 3.703125l4.953125 0l0 1.359375l-4.953125 0l0 4.09375l5.140625 0l0 1.390625zm11.241638 0l-1.828125 0l-1.78125 -3.8125q-0.203125 -0.4375 -0.421875 -0.71875q-0.203125 -0.28125 -0.453125 -0.453125q-0.234375 -0.171875 -0.515625 -0.234375q-0.28125 -0.078125 -0.640625 -0.078125l-0.765625 0l0 5.296875l-1.625 0l0 -11.90625l3.1875 0q1.046875 0 1.78125 0.234375q0.75 0.21875 1.21875 0.640625q0.484375 0.40625 0.703125 0.984375q0.234375 0.578125 0.234375 1.28125q0 0.546875 -0.171875 1.046875q-0.15625 0.5 -0.484375 0.90625q-0.3125 0.40625 -0.796875 0.703125q-0.484375 0.28125 -1.09375 0.4375q0.5 0.171875 0.84375 0.609375q0.359375 0.421875 0.71875 1.140625l1.890625 3.921875zm-2.59375 -8.640625q0 -0.953125 -0.609375 -1.421875q-0.59375 -0.484375 -1.671875 -0.484375l-1.53125 0l0 3.9375l1.3125 0q0.578125 0 1.03125 -0.125q0.453125 -0.140625 0.78125 -0.390625q0.328125 -0.265625 0.5 -0.640625q0.1875 -0.375 0.1875 -0.875zm22.952087 4.0q0 1.0625 -0.3125 1.953125q-0.296875 0.890625 -0.859375 1.53125q-0.5625 0.625 -1.375 0.96875q-0.8125 0.34375 -1.84375 0.34375q-0.984375 0 -1.765625 -0.296875q-0.765625 -0.3125 -1.3125 -0.890625q-0.546875 -0.59375 -0.828125 -1.46875q-0.28125 -0.875 -0.28125 -2.015625q0 -1.0625 0.296875 -1.9375q0.296875 -0.890625 0.859375 -1.515625q0.5625 -0.640625 1.375 -0.984375q0.8125 -0.359375 1.84375 -0.359375q0.984375 0 1.765625 0.3125q0.78125 0.296875 1.3125 0.890625q0.546875 0.578125 0.828125 1.453125q0.296875 0.875 0.296875 2.015625zm-1.625 0.0625q0 -0.84375 -0.1875 -1.46875q-0.1875 -0.640625 -0.53125 -1.0625q-0.34375 -0.421875 -0.84375 -0.640625q-0.5 -0.21875 -1.109375 -0.21875q-0.703125 0 -1.21875 0.28125q-0.5 0.28125 -0.828125 0.75q-0.3125 0.453125 -0.46875 1.078125q-0.15625 0.609375 -0.15625 1.28125q0 0.859375 0.1875 1.5q0.1875 0.625 0.53125 1.046875q0.359375 0.421875 0.84375 0.640625q0.5 0.21875 1.109375 0.21875q0.71875 0 1.21875 -0.28125q0.5 -0.28125 0.828125 -0.734375q0.328125 -0.46875 0.46875 -1.078125q0.15625 -0.625 0.15625 -1.3125zm11.741699 -0.15625q0 1.21875 -0.34375 2.140625q-0.34375 0.90625 -0.953125 1.515625q-0.59375 0.59375 -1.421875 0.890625q-0.8125 0.296875 -1.765625 0.296875q-0.4375 0 -0.875 -0.046875q-0.4375 -0.046875 -0.875 -0.15625l0 3.828125l-1.59375 0l0 -12.875l1.421875 0l0.09375 1.53125q0.6875 -0.9375 1.453125 -1.3125q0.78125 -0.390625 1.6875 -0.390625q0.78125 0 1.375 0.328125q0.59375 0.328125 0.984375 0.9375q0.40625 0.59375 0.609375 1.4375q0.203125 0.828125 0.203125 1.875zm-1.625 0.0625q0 -0.71875 -0.109375 -1.3125q-0.109375 -0.609375 -0.34375 -1.03125q-0.21875 -0.421875 -0.578125 -0.65625q-0.34375 -0.25 -0.84375 -0.25q-0.296875 0 -0.609375 0.09375q-0.3125 0.09375 -0.640625 0.328125q-0.328125 0.21875 -0.703125 0.59375q-0.359375 0.359375 -0.78125 0.90625l0 4.4375q0.4375 0.171875 0.921875 0.28125q0.484375 0.109375 0.9375 0.109375q1.28125 0 2.015625 -0.875q0.734375 -0.875 0.734375 -2.625zm11.788513 -0.390625q0 0.34375 -0.015625 0.578125q0 0.21875 -0.03125 0.421875l-6.421875 0q0 1.40625 0.78125 2.15625q0.796875 0.75 2.265625 0.75q0.40625 0 0.796875 -0.03125q0.40625 -0.03125 0.78125 -0.078125q0.375 -0.0625 0.71875 -0.125q0.34375 -0.078125 0.625 -0.15625l0 1.296875q-0.640625 0.1875 -1.46875 0.296875q-0.8125 0.109375 -1.6875 0.109375q-1.171875 0 -2.015625 -0.3125q-0.84375 -0.3125 -1.390625 -0.921875q-0.546875 -0.609375 -0.8125 -1.484375q-0.25 -0.875 -0.25 -2.0q0 -0.953125 0.28125 -1.8125q0.28125 -0.859375 0.8125 -1.515625q0.53125 -0.65625 1.296875 -1.03125q0.78125 -0.390625 1.765625 -0.390625q0.953125 0 1.6875 0.3125q0.75 0.296875 1.25 0.84375q0.5 0.546875 0.765625 1.34375q0.265625 0.78125 0.265625 1.75zm-1.65625 -0.21875q0.03125 -0.609375 -0.125 -1.109375q-0.140625 -0.515625 -0.453125 -0.875q-0.296875 -0.375 -0.75 -0.578125q-0.453125 -0.203125 -1.0625 -0.203125q-0.515625 0 -0.953125 0.203125q-0.421875 0.203125 -0.734375 0.5625q-0.296875 0.359375 -0.5 0.875q-0.1875 0.515625 -0.234375 1.125l4.8125 0zm4.554199 -3.859375l1.453125 0l0.046875 1.6875q0.8125 -0.984375 1.59375 -1.421875q0.796875 -0.4375 1.59375 -0.4375q1.421875 0 2.15625 0.921875q0.734375 0.921875 0.671875 2.734375l-1.59375 0q0.015625 -1.203125 -0.359375 -1.734375q-0.375 -0.546875 -1.109375 -0.546875q-0.3125 0 -0.640625 0.109375q-0.328125 0.109375 -0.671875 0.359375q-0.328125 0.25 -0.71875 0.640625q-0.375 0.390625 -0.8125 0.953125l0 5.875l-1.609375 0l0 -9.140625zm15.757263 9.140625l-0.03125 -1.234375q-0.75 0.75 -1.515625 1.078125q-0.765625 0.3125 -1.625 0.3125q-0.78125 0 -1.34375 -0.1875q-0.546875 -0.203125 -0.90625 -0.546875q-0.359375 -0.359375 -0.53125 -0.828125q-0.15625 -0.484375 -0.15625 -1.03125q0 -1.375 1.015625 -2.15625q1.03125 -0.78125 3.03125 -0.78125l1.890625 0l0 -0.796875q0 -0.8125 -0.515625 -1.296875q-0.515625 -0.5 -1.578125 -0.5q-0.78125 0 -1.53125 0.1875q-0.75 0.171875 -1.546875 0.484375l0 -1.4375q0.296875 -0.109375 0.65625 -0.203125q0.375 -0.109375 0.78125 -0.1875q0.40625 -0.078125 0.859375 -0.125q0.453125 -0.0625 0.90625 -0.0625q0.828125 0 1.484375 0.1875q0.671875 0.171875 1.125 0.546875q0.46875 0.375 0.703125 0.953125q0.25 0.5625 0.25 1.328125l0 6.296875l-1.421875 0zm-0.171875 -4.15625l-2.015625 0q-0.578125 0 -1.015625 0.125q-0.421875 0.109375 -0.703125 0.328125q-0.265625 0.21875 -0.40625 0.53125q-0.125 0.296875 -0.125 0.671875q0 0.265625 0.078125 0.515625q0.078125 0.234375 0.265625 0.421875q0.1875 0.1875 0.46875 0.296875q0.296875 0.109375 0.71875 0.109375q0.546875 0 1.25 -0.328125q0.703125 -0.34375 1.484375 -1.0625l0 -1.609375zm11.929199 4.03125q-0.53125 0.140625 -1.109375 0.1875q-0.578125 0.0625 -1.171875 0.0625q-1.71875 0 -2.5625 -0.78125q-0.84375 -0.78125 -0.84375 -2.390625l0 -4.765625l-2.5625 0l0 -1.328125l2.5625 0l0 -2.515625l1.578125 -0.40625l0 2.921875l4.109375 0l0 1.328125l-4.109375 0l0 4.640625q0 0.984375 0.515625 1.46875q0.53125 0.484375 1.546875 0.484375q0.4375 0 0.953125 -0.0625q0.53125 -0.0625 1.09375 -0.21875l0 1.375zm6.007263 -7.703125l-2.703125 0l0 -1.3125l4.296875 0l0 7.8125l2.734375 0l0 1.328125l-7.34375 0l0 -1.328125l3.015625 0l0 -6.5zm0.546875 -5.15625q0.265625 0 0.484375 0.09375q0.234375 0.09375 0.40625 0.28125q0.171875 0.171875 0.265625 0.390625q0.09375 0.21875 0.09375 0.484375q0 0.25 -0.09375 0.484375q-0.09375 0.234375 -0.265625 0.40625q-0.171875 0.171875 -0.40625 0.265625q-0.21875 0.09375 -0.484375 0.09375q-0.265625 0 -0.5 -0.09375q-0.21875 -0.09375 -0.390625 -0.265625q-0.15625 -0.171875 -0.265625 -0.40625q-0.09375 -0.234375 -0.09375 -0.484375q0 -0.265625 0.09375 -0.484375q0.109375 -0.21875 0.265625 -0.390625q0.171875 -0.1875 0.390625 -0.28125q0.234375 -0.09375 0.5 -0.09375zm14.554199 8.34375q0 1.0625 -0.3125 1.953125q-0.296875 0.890625 -0.859375 1.53125q-0.5625 0.625 -1.375 0.96875q-0.8125 0.34375 -1.84375 0.34375q-0.984375 0 -1.765625 -0.296875q-0.765625 -0.3125 -1.3125 -0.890625q-0.546875 -0.59375 -0.828125 -1.46875q-0.28125 -0.875 -0.28125 -2.015625q0 -1.0625 0.296875 -1.9375q0.296875 -0.890625 0.859375 -1.515625q0.5625 -0.640625 1.375 -0.984375q0.8125 -0.359375 1.84375 -0.359375q0.984375 0 1.765625 0.3125q0.78125 0.296875 1.3125 0.890625q0.546875 0.578125 0.828125 1.453125q0.296875 0.875 0.296875 2.015625zm-1.625 0.0625q0 -0.84375 -0.1875 -1.46875q-0.1875 -0.640625 -0.53125 -1.0625q-0.34375 -0.421875 -0.84375 -0.640625q-0.5 -0.21875 -1.109375 -0.21875q-0.703125 0 -1.21875 0.28125q-0.5 0.28125 -0.828125 0.75q-0.3125 0.453125 -0.46875 1.078125q-0.15625 0.609375 -0.15625 1.28125q0 0.859375 0.1875 1.5q0.1875 0.625 0.53125 1.046875q0.359375 0.421875 0.84375 0.640625q0.5 0.21875 1.109375 0.21875q0.71875 0 1.21875 -0.28125q0.5 -0.28125 0.828125 -0.734375q0.328125 -0.46875 0.46875 -1.078125q0.15625 -0.625 0.15625 -1.3125zm3.9135132 -4.5625l1.421875 0l0.0625 1.46875q0.390625 -0.46875 0.765625 -0.78125q0.375 -0.3125 0.734375 -0.5q0.359375 -0.203125 0.734375 -0.28125q0.375 -0.078125 0.78125 -0.078125q1.40625 0 2.125 0.84375q0.734375 0.828125 0.734375 2.5l0 5.96875l-1.59375 0l0 -5.84375q0 -1.078125 -0.40625 -1.578125q-0.390625 -0.515625 -1.1875 -0.515625q-0.28125 0 -0.5625 0.09375q-0.28125 0.078125 -0.578125 0.296875q-0.296875 0.203125 -0.65625 0.578125q-0.34375 0.359375 -0.78125 0.90625l0 6.0625l-1.59375 0l0 -9.140625z"
       id="path55"
       fill-rule="nonzero"
       fill="#000000" />
    <path
       d="m66.80577 83.02942l0 0c0 -15.139572 12.273048 -27.41262 27.412628 -27.41262l109.6472 0l0 0c7.270279 0 14.242783 2.8881073 19.383636 8.028969c5.140869 5.140869 8.028976 12.113373 8.028976 19.383652l0 158.4661c0 15.139587 -12.273041 27.412628 -27.412613 27.412628l-109.6472 0c-15.13958 0 -27.412628 -12.273041 -27.412628 -27.412628z"
       id="path57"
       fill-rule="evenodd"
       fill-opacity="0.0"
       fill="#000000" />
    <path
       d="m66.80577 83.02942l0 0c0 -15.139572 12.273048 -27.41262 27.412628 -27.41262l109.6472 0l0 0c7.270279 0 14.242783 2.8881073 19.383636 8.028969c5.140869 5.140869 8.028976 12.113373 8.028976 19.383652l0 158.4661c0 15.139587 -12.273041 27.412628 -27.412613 27.412628l-109.6472 0c-15.13958 0 -27.412628 -12.273041 -27.412628 -27.412628z"
       id="path59"
       stroke-linejoin="round"
       stroke-linecap="butt"
       stroke-width="4.0"
       stroke="#000000"
       fill-rule="evenodd" />
    <path
       d="m128.66277 90.56568l0 -13.265625l4.078125 0q1.75 0 3.125 0.796875q1.390625 0.78125 2.15625 2.234375q0.78125 1.453125 0.78125 3.296875l0 0.609375q0 1.859375 -0.765625 3.296875q-0.765625 1.4375 -2.15625 2.234375q-1.375 0.78125 -3.109375 0.796875l-4.109375 0zm2.734375 -11.046875l0 8.84375l1.3125 0q1.609375 0 2.453125 -1.046875q0.84375 -1.046875 0.859375 -2.984375l0 -0.703125q0 -2.03125 -0.84375 -3.0625q-0.828125 -1.046875 -2.4375 -1.046875l-1.34375 0zm14.921616 11.046875q-0.171875 -0.359375 -0.265625 -0.890625q-0.953125 1.078125 -2.484375 1.078125q-1.453125 0 -2.40625 -0.84375q-0.9375 -0.84375 -0.9375 -2.109375q0 -1.578125 1.15625 -2.40625q1.15625 -0.84375 3.359375 -0.84375l1.203125 0l0 -0.578125q0 -0.671875 -0.359375 -1.078125q-0.34375 -0.421875 -1.09375 -0.421875q-0.65625 0 -1.046875 0.328125q-0.375 0.3125 -0.375 0.875l-2.625 0q0 -0.859375 0.515625 -1.578125q0.53125 -0.734375 1.5 -1.140625q0.96875 -0.421875 2.171875 -0.421875q1.8125 0 2.875 0.921875q1.078125 0.90625 1.078125 2.5625l0 4.265625q0.015625 1.40625 0.390625 2.125l0 0.15625l-2.65625 0zm-2.171875 -1.828125q0.578125 0 1.0625 -0.25q0.5 -0.265625 0.734375 -0.703125l0 -1.703125l-0.984375 0q-1.96875 0 -2.09375 1.375l-0.015625 0.15625q0 0.484375 0.34375 0.8125q0.34375 0.3125 0.953125 0.3125zm15.345978 -3.015625q0 2.28125 -1.046875 3.65625q-1.03125 1.375 -2.78125 1.375q-1.5 0 -2.421875 -1.046875l0 4.65625l-2.625 0l0 -13.65625l2.4375 0l0.09375 0.96875q0.953125 -1.140625 2.5 -1.140625q1.8125 0 2.828125 1.34375q1.015625 1.34375 1.015625 3.71875l0 0.125zm-2.640625 -0.1875q0 -1.375 -0.484375 -2.109375q-0.484375 -0.75 -1.421875 -0.75q-1.234375 0 -1.703125 0.9375l0 4.03125q0.484375 0.984375 1.71875 0.984375q1.890625 0 1.890625 -3.09375zm13.143875 0.1875q0 2.28125 -1.046875 3.65625q-1.03125 1.375 -2.78125 1.375q-1.5 0 -2.421875 -1.046875l0 4.65625l-2.625 0l0 -13.65625l2.4375 0l0.09375 0.96875q0.953125 -1.140625 2.5 -1.140625q1.8125 0 2.828125 1.34375q1.015625 1.34375 1.015625 3.71875l0 0.125zm-2.640625 -0.1875q0 -1.375 -0.484375 -2.109375q-0.484375 -0.75 -1.421875 -0.75q-1.234375 0 -1.703125 0.9375l0 4.03125q0.484375 0.984375 1.71875 0.984375q1.890625 0 1.890625 -3.09375z"
       id="path61"
       fill-rule="nonzero"
       fill="#000000" />
    <path
       d="m211.50394 160.6378l98.37204 0l0 -84.00001l98.38388 0"
       id="path63"
       fill-rule="evenodd"
       fill-opacity="0.0"
       fill="#000000" />
    <path
       d="m211.50394 160.6378l98.37204 0l0 -84.00001l83.22388 0"
       id="path65"
       stroke-linejoin="round"
       stroke-linecap="butt"
       stroke-width="4.0"
       stroke="#000000"
       fill-rule="evenodd" />
    <path
       d="m406.25986 76.637794c0 3.6340332 -2.945984 6.580002 -6.580017 6.580002c-3.6340332 0 -6.5799866 -2.9459686 -6.5799866 -6.580002c0 -3.6340332 2.9459534 -6.580002 6.5799866 -6.580002c3.6340332 0 6.580017 2.9459686 6.580017 6.580002z"
       id="path67"
       stroke-linecap="butt"
       stroke-width="4.0"
       stroke="#000000"
       fill-rule="nonzero"
       fill="#000000" />
    <path
       d="m242.29659 169.95801l85.92125 0l0 87.27557l-85.92125 0z"
       id="path69"
       fill-rule="evenodd"
       fill-opacity="0.0"
       fill="#000000" />
    <path
       d="m260.87473 196.878l-1.828125 0l-1.78125 -3.8125q-0.203125 -0.4375 -0.421875 -0.71875q-0.203125 -0.28125 -0.453125 -0.453125q-0.234375 -0.171875 -0.51564026 -0.234375q-0.28125 -0.078125 -0.640625 -0.078125l-0.765625 0l0 5.296875l-1.625 0l0 -11.90625l3.1875153 0q1.046875 0 1.78125 0.234375q0.75 0.21875 1.21875 0.640625q0.484375 0.40625 0.703125 0.984375q0.234375 0.578125 0.234375 1.28125q0 0.546875 -0.171875 1.046875q-0.15625 0.5 -0.484375 0.90625q-0.3125 0.40625 -0.796875 0.703125q-0.484375 0.28125 -1.09375 0.4375q0.5 0.171875 0.84375 0.609375q0.359375 0.421875 0.71875 1.140625l1.890625 3.921875zm-2.59375 -8.640625q0 -0.953125 -0.609375 -1.421875q-0.59375 -0.484375 -1.6718903 -0.484375l-1.53125 0l0 3.9375l1.3125 0q0.57814026 0 1.0312653 -0.125q0.453125 -0.140625 0.78125 -0.390625q0.328125 -0.265625 0.5 -0.640625q0.1875 -0.375 0.1875 -0.875zm12.460419 3.578125q0 0.34375 -0.015625 0.578125q0 0.21875 -0.03125 0.421875l-6.421875 0q0 1.40625 0.78125 2.15625q0.796875 0.75 2.265625 0.75q0.40625 0 0.796875 -0.03125q0.40625 -0.03125 0.78125 -0.078125q0.375 -0.0625 0.71875 -0.125q0.34375 -0.078125 0.625 -0.15625l0 1.296875q-0.640625 0.1875 -1.46875 0.296875q-0.8125 0.109375 -1.6875 0.109375q-1.171875 0 -2.015625 -0.3125q-0.84375 -0.3125 -1.390625 -0.921875q-0.546875 -0.609375 -0.8125 -1.484375q-0.25 -0.875 -0.25 -2.0q0 -0.953125 0.28125 -1.8125q0.28125 -0.859375 0.8125 -1.515625q0.53125 -0.65625 1.296875 -1.03125q0.78125 -0.390625 1.765625 -0.390625q0.953125 0 1.6875 0.3125q0.75 0.296875 1.25 0.84375q0.5 0.546875 0.765625 1.34375q0.265625 0.78125 0.265625 1.75zm-1.65625 -0.21875q0.03125 -0.609375 -0.125 -1.109375q-0.140625 -0.515625 -0.453125 -0.875q-0.296875 -0.375 -0.75 -0.578125q-0.453125 -0.203125 -1.0625 -0.203125q-0.515625 0 -0.953125 0.203125q-0.421875 0.203125 -0.734375 0.5625q-0.296875 0.359375 -0.5 0.875q-0.1875 0.515625 -0.234375 1.125l4.8125 0zm10.054169 5.28125l-0.03125 -1.234375q-0.75 0.75 -1.515625 1.078125q-0.765625 0.3125 -1.625 0.3125q-0.78125 0 -1.34375 -0.1875q-0.546875 -0.203125 -0.90625 -0.546875q-0.359375 -0.359375 -0.53125 -0.828125q-0.15625 -0.484375 -0.15625 -1.03125q0 -1.375 1.015625 -2.15625q1.03125 -0.78125 3.03125 -0.78125l1.890625 0l0 -0.796875q0 -0.8125 -0.515625 -1.296875q-0.515625 -0.5 -1.578125 -0.5q-0.78125 0 -1.53125 0.1875q-0.75 0.171875 -1.546875 0.484375l0 -1.4375q0.296875 -0.109375 0.65625 -0.203125q0.375 -0.109375 0.78125 -0.1875q0.40625 -0.078125 0.859375 -0.125q0.453125 -0.0625 0.90625 -0.0625q0.828125 0 1.484375 0.1875q0.671875 0.171875 1.125 0.546875q0.46875 0.375 0.703125 0.953125q0.25 0.5625 0.25 1.328125l0 6.296875l-1.421875 0zm-0.171875 -4.15625l-2.015625 0q-0.578125 0 -1.015625 0.125q-0.421875 0.109375 -0.703125 0.328125q-0.265625 0.21875 -0.40625 0.53125q-0.125 0.296875 -0.125 0.671875q0 0.265625 0.078125 0.515625q0.078125 0.234375 0.265625 0.421875q0.1875 0.1875 0.46875 0.296875q0.296875 0.109375 0.71875 0.109375q0.546875 0 1.25 -0.328125q0.703125 -0.34375 1.484375 -1.0625l0 -1.609375zm4.1010437 -0.21875q0 -1.171875 0.3125 -2.078125q0.3125 -0.90625 0.90625 -1.53125q0.59375 -0.625 1.40625 -0.9375q0.828125 -0.328125 1.84375 -0.328125q0.4375 0 0.859375 0.0625q0.421875 0.046875 0.828125 0.15625l0 -3.84375l1.59375 0l0 12.875l-1.421875 0l-0.046875 -1.734375q-0.671875 0.96875 -1.453125 1.4375q-0.765625 0.453125 -1.671875 0.453125q-0.78125 0 -1.375 -0.3125q-0.59375 -0.328125 -1.0 -0.921875q-0.390625 -0.609375 -0.59375 -1.4375q-0.1875 -0.84375 -0.1875 -1.859375zm1.609375 -0.109375q0 1.65625 0.484375 2.484375q0.5 0.8125 1.390625 0.8125q0.59375 0 1.265625 -0.53125q0.671875 -0.546875 1.40625 -1.609375l0 -4.234375q-0.390625 -0.1875 -0.859375 -0.28125q-0.46875 -0.09375 -0.9375 -0.09375q-1.296875 0 -2.03125 0.84375q-0.71875 0.828125 -0.71875 2.609375z"
       id="path71"
       fill-rule="nonzero"
       fill="#000000" />
    <path
       d="m260.57785 214.54362q0 1.140625 -0.328125 2.046875q-0.3125 0.890625 -0.890625 1.515625q-0.578125 0.609375 -1.40625 0.953125q-0.828125 0.328125 -1.859375 0.328125q-0.81251526 0 -1.6718903 -0.15625q-0.84375 -0.15625 -1.671875 -0.484375l0 -12.34375l1.59375 0l0 3.546875l-0.078125 1.6875q0.6875 -0.90625 1.453125 -1.28125q0.78126526 -0.390625 1.6875153 -0.390625q0.78125 0 1.375 0.328125q0.59375 0.328125 0.984375 0.9375q0.40625 0.59375 0.609375 1.4375q0.203125 0.828125 0.203125 1.875zm-1.625 0.0625q0 -0.71875 -0.109375 -1.3125q-0.109375 -0.609375 -0.34375 -1.03125q-0.21875 -0.421875 -0.578125 -0.65625q-0.34375 -0.25 -0.84375 -0.25q-0.296875 0 -0.609375 0.09375q-0.3125 0.09375 -0.64064026 0.328125q-0.328125 0.21875 -0.703125 0.59375q-0.359375 0.359375 -0.78125 0.90625l0 4.4375q0.453125 0.171875 0.9375 0.28125q0.484375 0.109375 0.92189026 0.109375q0.546875 0 1.046875 -0.171875q0.5 -0.171875 0.875 -0.578125q0.375 -0.40625 0.59375 -1.078125q0.234375 -0.671875 0.234375 -1.671875zm7.1791687 -6.890625l-2.703125 0l0 -1.3125l4.296875 0l0 11.546875l2.734375 0l0 1.328125l-7.34375 0l0 -1.328125l3.015625 0l0 -10.234375zm15.101044 6.921875q0 1.0625 -0.3125 1.953125q-0.296875 0.890625 -0.859375 1.53125q-0.5625 0.625 -1.375 0.96875q-0.8125 0.34375 -1.84375 0.34375q-0.984375 0 -1.765625 -0.296875q-0.765625 -0.3125 -1.3125 -0.890625q-0.546875 -0.59375 -0.828125 -1.46875q-0.28125 -0.875 -0.28125 -2.015625q0 -1.0625 0.296875 -1.9375q0.296875 -0.890625 0.859375 -1.515625q0.5625 -0.640625 1.375 -0.984375q0.8125 -0.359375 1.84375 -0.359375q0.984375 0 1.765625 0.3125q0.78125 0.296875 1.3125 0.890625q0.546875 0.578125 0.828125 1.453125q0.296875 0.875 0.296875 2.015625zm-1.625 0.0625q0 -0.84375 -0.1875 -1.46875q-0.1875 -0.640625 -0.53125 -1.0625q-0.34375 -0.421875 -0.84375 -0.640625q-0.5 -0.21875 -1.109375 -0.21875q-0.703125 0 -1.21875 0.28125q-0.5 0.28125 -0.828125 0.75q-0.3125 0.453125 -0.46875 1.078125q-0.15625 0.609375 -0.15625 1.28125q0 0.859375 0.1875 1.5q0.1875 0.625 0.53125 1.046875q0.359375 0.421875 0.84375 0.640625q0.5 0.21875 1.109375 0.21875q0.71875 0 1.21875 -0.28125q0.5 -0.28125 0.828125 -0.734375q0.328125 -0.46875 0.46875 -1.078125q0.15625 -0.625 0.15625 -1.3125zm11.022919 4.234375q-0.625 0.25 -1.28125 0.359375q-0.640625 0.109375 -1.328125 0.109375q-2.171875 0 -3.34375 -1.171875q-1.171875 -1.171875 -1.171875 -3.4375q0 -1.078125 0.328125 -1.953125q0.34375 -0.890625 0.953125 -1.515625q0.609375 -0.640625 1.453125 -0.984375q0.859375 -0.34375 1.875 -0.34375q0.71875 0 1.328125 0.109375q0.625 0.09375 1.1875 0.328125l0 1.515625q-0.59375 -0.3125 -1.21875 -0.453125q-0.609375 -0.140625 -1.265625 -0.140625q-0.609375 0 -1.15625 0.234375q-0.53125 0.234375 -0.9375 0.671875q-0.40625 0.421875 -0.65625 1.0625q-0.234375 0.625 -0.234375 1.421875q0 1.65625 0.796875 2.484375q0.8125 0.8125 2.25 0.8125q0.640625 0 1.25 -0.140625q0.609375 -0.140625 1.171875 -0.4375l0 1.46875zm11.382294 0.34375l-2.1875 0l-4.25 -4.90625l0 4.90625l-1.59375 0l0 -12.875l1.59375 0l0 7.90625l4.09375 -4.171875l2.109375 0l-4.296875 4.21875l4.53125 4.921875zm9.272919 -2.5q0 0.484375 -0.171875 0.875q-0.15625 0.375 -0.4375 0.671875q-0.28125 0.296875 -0.65625 0.515625q-0.375 0.203125 -0.796875 0.34375q-0.421875 0.125 -0.875 0.1875q-0.453125 0.0625 -0.875 0.0625q-0.921875 0 -1.703125 -0.078125q-0.78125 -0.078125 -1.53125 -0.265625l0 -1.453125q0.796875 0.234375 1.59375 0.359375q0.796875 0.109375 1.578125 0.109375q1.140625 0 1.6875 -0.3125q0.546875 -0.3125 0.546875 -0.890625q0 -0.234375 -0.09375 -0.421875q-0.078125 -0.203125 -0.3125 -0.375q-0.21875 -0.1875 -0.703125 -0.375q-0.484375 -0.203125 -1.3125 -0.4375q-0.609375 -0.1875 -1.140625 -0.421875q-0.515625 -0.234375 -0.90625 -0.546875q-0.375 -0.328125 -0.59375 -0.75q-0.21875 -0.421875 -0.21875 -1.015625q0 -0.375 0.171875 -0.828125q0.171875 -0.453125 0.59375 -0.84375q0.4375 -0.40625 1.171875 -0.65625q0.734375 -0.265625 1.8125 -0.265625q0.546875 0 1.203125 0.0625q0.65625 0.0625 1.359375 0.203125l0 1.40625q-0.75 -0.171875 -1.421875 -0.25q-0.65625 -0.09375 -1.15625 -0.09375q-0.59375 0 -1.0 0.09375q-0.390625 0.078125 -0.65625 0.25q-0.25 0.15625 -0.359375 0.375q-0.109375 0.203125 -0.109375 0.453125q0 0.25 0.09375 0.453125q0.109375 0.1875 0.359375 0.375q0.265625 0.1875 0.71875 0.375q0.46875 0.1875 1.21875 0.40625q0.8125 0.234375 1.359375 0.5q0.5625 0.25 0.90625 0.578125q0.359375 0.3125 0.5 0.71875q0.15625 0.40625 0.15625 0.90625z"
       id="path73"
       fill-rule="nonzero"
       fill="#000000" />
    <path
       d="m260.87473 241.678l-1.828125 0l-1.78125 -3.8125q-0.203125 -0.4375 -0.421875 -0.71875q-0.203125 -0.28125 -0.453125 -0.453125q-0.234375 -0.171875 -0.51564026 -0.234375q-0.28125 -0.078125 -0.640625 -0.078125l-0.765625 0l0 5.296875l-1.625 0l0 -11.90625l3.1875153 0q1.046875 0 1.78125 0.234375q0.75 0.21875 1.21875 0.640625q0.484375 0.40625 0.703125 0.984375q0.234375 0.578125 0.234375 1.28125q0 0.546875 -0.171875 1.046875q-0.15625 0.5 -0.484375 0.90625q-0.3125 0.40625 -0.796875 0.703125q-0.484375 0.28125 -1.09375 0.4375q0.5 0.171875 0.84375 0.609375q0.359375 0.421875 0.71875 1.140625l1.890625 3.921875zm-2.59375 -8.640625q0 -0.953125 -0.609375 -1.421875q-0.59375 -0.484375 -1.6718903 -0.484375l-1.53125 0l0 3.9375l1.3125 0q0.57814026 0 1.0312653 -0.125q0.453125 -0.140625 0.78125 -0.390625q0.328125 -0.265625 0.5 -0.640625q0.1875 -0.375 0.1875 -0.875zm12.522919 0.375q0 0.734375 -0.28125 1.453125q-0.265625 0.703125 -0.84375 1.28125q-0.5625 0.5625 -1.453125 0.921875q-0.890625 0.34375 -2.140625 0.34375l-1.46875 0l0 4.265625l-1.625 0l0 -11.90625l3.359375 0q0.875 0 1.6875 0.203125q0.8125 0.1875 1.421875 0.625q0.625 0.4375 0.984375 1.140625q0.359375 0.6875 0.359375 1.671875zm-1.6875 0.078125q0 -1.15625 -0.75 -1.765625q-0.75 -0.609375 -2.09375 -0.609375l-1.65625 0l0 4.90625l1.515625 0q1.4375 0 2.203125 -0.625q0.78125 -0.640625 0.78125 -1.90625zm11.757294 7.734375q-1.421875 0.59375 -3.0 0.59375q-2.515625 0 -3.875 -1.5q-1.34375 -1.515625 -1.34375 -4.46875q0 -1.421875 0.359375 -2.578125q0.375 -1.15625 1.0625 -1.953125q0.703125 -0.8125 1.6875 -1.25q0.984375 -0.4375 2.203125 -0.4375q0.828125 0 1.53125 0.140625q0.71875 0.140625 1.375 0.421875l0 1.59375q-0.640625 -0.34375 -1.34375 -0.53125q-0.6875 -0.1875 -1.5 -0.1875q-0.84375 0 -1.53125 0.3125q-0.671875 0.3125 -1.15625 0.90625q-0.46875 0.59375 -0.71875 1.46875q-0.25 0.859375 -0.25 1.953125q0 2.3125 0.9375 3.5q0.9375 1.171875 2.75 1.171875q0.765625 0 1.46875 -0.171875q0.703125 -0.1875 1.34375 -0.515625l0 1.53125zm9.897919 -2.046875q0 0.484375 -0.171875 0.875q-0.15625 0.375 -0.4375 0.671875q-0.28125 0.296875 -0.65625 0.515625q-0.375 0.203125 -0.796875 0.34375q-0.421875 0.125 -0.875 0.1875q-0.453125 0.0625 -0.875 0.0625q-0.921875 0 -1.703125 -0.078125q-0.78125 -0.078125 -1.53125 -0.265625l0 -1.453125q0.796875 0.234375 1.59375 0.359375q0.796875 0.109375 1.578125 0.109375q1.140625 0 1.6875 -0.3125q0.546875 -0.3125 0.546875 -0.890625q0 -0.234375 -0.09375 -0.421875q-0.078125 -0.203125 -0.3125 -0.375q-0.21875 -0.1875 -0.703125 -0.375q-0.484375 -0.203125 -1.3125 -0.4375q-0.609375 -0.1875 -1.140625 -0.421875q-0.515625 -0.234375 -0.90625 -0.546875q-0.375 -0.328125 -0.59375 -0.75q-0.21875 -0.421875 -0.21875 -1.015625q0 -0.375 0.171875 -0.828125q0.171875 -0.453125 0.59375 -0.84375q0.4375 -0.40625 1.171875 -0.65625q0.734375 -0.265625 1.8125 -0.265625q0.546875 0 1.203125 0.0625q0.65625 0.0625 1.359375 0.203125l0 1.40625q-0.75 -0.171875 -1.421875 -0.25q-0.65625 -0.09375 -1.15625 -0.09375q-0.59375 0 -1.0 0.09375q-0.390625 0.078125 -0.65625 0.25q-0.25 0.15625 -0.359375 0.375q-0.109375 0.203125 -0.109375 0.453125q0 0.25 0.09375 0.453125q0.109375 0.1875 0.359375 0.375q0.265625 0.1875 0.71875 0.375q0.46875 0.1875 1.21875 0.40625q0.8125 0.234375 1.359375 0.5q0.5625 0.25 0.90625 0.578125q0.359375 0.3125 0.5 0.71875q0.15625 0.40625 0.15625 0.90625z"
       id="path75"
       fill-rule="nonzero"
       fill="#000000" />
    <path
       d="m131.62993 139.62993l79.87401 0l0 42.015747l-79.87401 0z"
       id="path77"
       fill-rule="evenodd"
       fill-opacity="0.0"
       fill="#000000" />
    <path
       d="m131.62993 139.62993l79.87401 0l0 42.015747l-79.87401 0z"
       id="path79"
       stroke-linejoin="round"
       stroke-linecap="butt"
       stroke-width="4.0"
       stroke="#000000"
       fill-rule="evenodd" />
    <path
       d="m152.22368 163.13593q-0.15625 2.140625 -1.578125 3.375q-1.421875 1.234375 -3.75 1.234375q-2.5625 0 -4.03125 -1.71875q-1.453125 -1.71875 -1.453125 -4.71875l0 -0.8125q0 -1.90625 0.671875 -3.359375q0.671875 -1.46875 1.921875 -2.25q1.265625 -0.78125 2.921875 -0.78125q2.296875 0 3.6875 1.234375q1.40625 1.234375 1.625 3.453125l-2.734375 0q-0.09375 -1.28125 -0.71875 -1.859375q-0.609375 -0.578125 -1.859375 -0.578125q-1.375 0 -2.046875 0.984375q-0.671875 0.96875 -0.703125 3.03125l0 1.0q0 2.15625 0.65625 3.15625q0.65625 0.984375 2.0625 0.984375q1.265625 0 1.875 -0.578125q0.625 -0.578125 0.71875 -1.796875l2.734375 0zm7.159851 -2.96875q-0.53125 -0.0625 -0.9375 -0.0625q-1.5 0 -1.96875 1.0l0 6.453125l-2.625 0l0 -9.859375l2.484375 0l0.078125 1.171875q0.78125 -1.34375 2.1875 -1.34375q0.4375 0 0.828125 0.109375l-0.046875 2.53125zm6.703232 7.390625q-0.171875 -0.359375 -0.265625 -0.890625q-0.953125 1.078125 -2.484375 1.078125q-1.453125 0 -2.40625 -0.84375q-0.9375 -0.84375 -0.9375 -2.109375q0 -1.578125 1.15625 -2.40625q1.15625 -0.84375 3.359375 -0.84375l1.203125 0l0 -0.578125q0 -0.671875 -0.359375 -1.078125q-0.34375 -0.421875 -1.09375 -0.421875q-0.65625 0 -1.046875 0.328125q-0.375 0.3125 -0.375 0.875l-2.625 0q0 -0.859375 0.515625 -1.578125q0.53125 -0.734375 1.5 -1.140625q0.96875 -0.421875 2.171875 -0.421875q1.8125 0 2.875 0.921875q1.078125 0.90625 1.078125 2.5625l0 4.265625q0.015625 1.40625 0.390625 2.125l0 0.15625l-2.65625 0zm-2.171875 -1.828125q0.578125 0 1.0625 -0.25q0.5 -0.265625 0.734375 -0.703125l0 -1.703125l-0.984375 0q-1.96875 0 -2.09375 1.375l-0.015625 0.15625q0 0.484375 0.34375 0.8125q0.34375 0.3125 0.953125 0.3125zm8.892853 -8.03125l0.078125 1.140625q1.0625 -1.3125 2.828125 -1.3125q1.578125 0 2.34375 0.921875q0.765625 0.90625 0.78125 2.734375l0 6.375l-2.640625 0l0 -6.296875q0 -0.84375 -0.359375 -1.21875q-0.359375 -0.375 -1.21875 -0.375q-1.109375 0 -1.65625 0.9375l0 6.953125l-2.640625 0l0 -9.859375l2.484375 0zm11.604843 5.90625l-0.953125 0.953125l0 3.0l-2.625 0l0 -14.0l2.625 0l0 7.765625l0.515625 -0.65625l2.515625 -2.96875l3.171875 0l-3.5625 4.109375l3.859375 5.75l-3.015625 0l-2.53125 -3.953125z"
       id="path81"
       fill-rule="nonzero"
       fill="#000000" />
  </g>
</svg>
